<?xml version="1.0" encoding="UTF-8" standalone="no"?>
<!-- Created with Inkscape (http://www.inkscape.org/) -->

<svg
   width="651.08704mm"
   height="1000mm"
   viewBox="0 0 651.08703 1000"
   version="1.1"
   id="svg8"
   inkscape:version="1.1.1 (3bf5ae0d25, 2021-09-20, custom)"
   sodipodi:docname="outer.svg"
   inkscape:export-filename="../images/bg-outer.png"
   inkscape:export-xdpi="367.38025"
   inkscape:export-ydpi="367.38025"
   xmlns:inkscape="http://www.inkscape.org/namespaces/inkscape"
   xmlns:sodipodi="http://sodipodi.sourceforge.net/DTD/sodipodi-0.dtd"
   xmlns="http://www.w3.org/2000/svg"
   xmlns:svg="http://www.w3.org/2000/svg"
   xmlns:rdf="http://www.w3.org/1999/02/22-rdf-syntax-ns#"
   xmlns:cc="http://creativecommons.org/ns#"
   xmlns:dc="http://purl.org/dc/elements/1.1/">
  <defs
     id="defs2" />
  <sodipodi:namedview
     id="base"
     pagecolor="#ffffff"
     bordercolor="#666666"
     borderopacity="1.0"
     inkscape:pageopacity="0.0"
     inkscape:pageshadow="2"
     inkscape:zoom="1.4"
     inkscape:cx="878.92855"
     inkscape:cy="391.42856"
     inkscape:document-units="mm"
     inkscape:current-layer="layer1"
     showgrid="false"
     fit-margin-top="0"
     fit-margin-left="0"
     fit-margin-right="0"
     fit-margin-bottom="0"
     inkscape:window-width="2560"
     inkscape:window-height="1403"
     inkscape:window-x="0"
     inkscape:window-y="0"
     inkscape:window-maximized="1"
     showguides="true"
     inkscape:guide-bbox="true"
     objecttolerance="1"
     guidetolerance="1"
     inkscape:pagecheckerboard="0" />
  <metadata
     id="metadata5">
    <rdf:RDF>
      <cc:Work
         rdf:about="">
        <dc:format>image/svg+xml</dc:format>
        <dc:type
           rdf:resource="http://purl.org/dc/dcmitype/StillImage" />
      </cc:Work>
    </rdf:RDF>
  </metadata>
  <g
     inkscape:label="Layer 1"
     inkscape:groupmode="layer"
     id="layer1"
     transform="translate(55.487568,695.23751)">
    <path
       style="opacity:0.99;fill:#000000;fill-opacity:0.992157;fill-rule:nonzero;stroke:none;stroke-width:79.2259;stroke-linecap:round;stroke-linejoin:round;stroke-miterlimit:10;stroke-dasharray:none;stroke-dashoffset:0;stroke-opacity:1;paint-order:normal"
       d="m 196.16947,-633.32329 c -9.02978,-0.56597 -44.78388,1.62766 -45.42246,0.98453 -1.1681,-1.17648 58.15607,-38.86114 71.70283,-41.25374 8.93549,-1.57817 62.5782,-6.57321 102.86031,-4.70814 40.51665,1.87593 44.61233,11.80889 17.48766,32.50336 l -13.66629,10.42655 -56.68456,-0.31413 c -31.17652,-0.17281 -67.24764,2.92727 -76.27749,2.36157 z"
       id="path4599"
       inkscape:connector-curvature="0"
       sodipodi:nodetypes="scssscss" />
    <path
       style="opacity:0.99;fill:#000000;fill-opacity:1;fill-rule:nonzero;stroke:none;stroke-width:56.0212;stroke-linecap:round;stroke-linejoin:round;stroke-miterlimit:10;stroke-dasharray:none;stroke-dashoffset:0;stroke-opacity:1;paint-order:normal"
       d="m 496.98985,231.51744 c -0.46416,-0.46416 -0.83723,-2.03059 -0.82912,-3.48101 0.007,-1.45042 -2.54191,-7.76368 -5.66673,-14.02946 -6.64648,-13.32726 -8.60788,-20.48714 -11.96331,-43.67063 -1.81049,-12.50945 -3.49842,-19.33872 -6.29913,-25.48628 -4.74891,-10.42367 -8.21331,-27.46731 -10.79359,-53.099804 -5.01804,-49.850071 -22.56138,-105.391967 -53.25498,-174.66763 -5.24529,-11.838662 -13.41304,-27.489546 -17.41025,-35.495826 -19.06873,-38.19426 -24.73188,-75.77487 -27.52147,-125.93144 -1.48592,-26.71567 -3.09247,-45.0039 -5.76658,-65.64161 -1.02451,-7.90682 -2.42376,-30.40666 -3.10942,-49.9997 -0.68559,-19.59297 -1.80561,-40.18057 -2.48892,-45.75017 -3.81095,-31.06507 -15.47864,-190.54195 -15.50349,-220.21694 l 1.53628,-12.78643 11.57457,-12.23015 c 6.36604,-6.72659 15.4236,-14.48257 17.5355,-15.57465 3.52682,-1.82376 3.4664,-2.5202 4.89713,-0.56356 0.85672,1.17172 5.05363,9.42904 6.19708,15.82328 1.14346,6.39418 5.57622,23.80008 8.67191,40.50882 7.01185,37.8461 6.38287,49.88271 13.52399,113.90095 9.68584,86.83035 10.33165,89.94612 30.90164,149.08357 41.81244,120.20811 63.01745,182.70883 72.41836,246.00431 5.33712,35.933931 13.51065,84.100495 18.14543,103.6432998 3.9792,16.7782652 14.18686,53.9317442 20.629,67.8476802 2.57834,5.569602 7.61044,14.781767 11.18247,20.471463 8.91471,14.200057 19.83755,32.348167 23.30423,40.814397 3.48282,8.50554 5.70786,7.02805 -6.76556,22.81221 -4.53284,5.73592 -16.24155,18.14223 -21.0906,26.3303 -10.53559,17.79044 -37.32381,44.51201 -43.21785,49.00768 -4.18476,3.19186 -7.2085,4.00538 -8.83655,2.37733 z"
       id="path4561"
       inkscape:connector-curvature="0"
       sodipodi:nodetypes="ccsccsssssssccsccscssssccccsscc" />
    <path
       style="opacity:0.99;fill:#000000;fill-opacity:1;fill-rule:nonzero;stroke:none;stroke-width:56.0212;stroke-linecap:round;stroke-linejoin:round;stroke-miterlimit:10;stroke-dasharray:none;stroke-dashoffset:0;stroke-opacity:1;paint-order:normal"
       d="m 382.25503,234.97782 c -13.57588,-0.50501 -41.48712,-1.51666 -62.02496,-2.24753 -20.53784,-0.73094 -88.60702,-1.67306 -151.26486,-2.09355 -119.386351,-0.80126 -145.67383,-1.70728 -164.7306388,-5.6777 -14.8702462,-3.09816 -42.1591782,-6.61367 -44.4076482,-8.47976 -0.949508,-55.37774 0.377535,-92.8577 4.93482,-113.43999 1.687726,-9.746786 -0.06497,-27.68954 1.028416,-36.043911 2.669631,-20.402341 8.016024,-31.081272 11.910704,-44.149591 l 3.302111,-11.079996 196.707226,0.320827 210.24096,18.042284 45.87436,7.377689 c 42.65215,6.859476 0.58539,12.007851 14.25022,61.356051 1.83314,20.243337 14.80709,37.061117 20.53931,55.325097 2.51284,8.00628 0.58004,29.33527 2.26817,38.73397 1.68846,9.39864 11.62269,25.39296 13.37238,31.41473 1.74974,6.02171 -5.60778,9.02992 -5.4104,9.96682 0.25519,1.2111 -1.83608,1.9399 -7.23603,2.52154 -9.78141,1.05364 -57.71889,-0.66916 -89.35414,-1.84671 z"
       id="path4559"
       inkscape:connector-curvature="0"
       sodipodi:nodetypes="csssccsscccscsscccsc" />
  </g>
</svg>
