<?xml version="1.0" encoding="UTF-8" standalone="no"?>
<!-- Created with Inkscape (http://www.inkscape.org/) -->

<svg
   xmlns:dc="http://purl.org/dc/elements/1.1/"
   xmlns:cc="http://creativecommons.org/ns#"
   xmlns:rdf="http://www.w3.org/1999/02/22-rdf-syntax-ns#"
   xmlns:svg="http://www.w3.org/2000/svg"
   xmlns="http://www.w3.org/2000/svg"
   xmlns:sodipodi="http://sodipodi.sourceforge.net/DTD/sodipodi-0.dtd"
   xmlns:inkscape="http://www.inkscape.org/namespaces/inkscape"
   width="651.08704mm"
   height="1000mm"
   viewBox="0 0 651.08703 1000"
   version="1.1"
   id="svg8"
   inkscape:version="0.92.4 5da689c313, 2019-01-14"
   sodipodi:docname="outer.svg"
   inkscape:export-filename="../images/bg-outer.png"
   inkscape:export-xdpi="367.38025"
   inkscape:export-ydpi="367.38025">
  <defs
     id="defs2" />
  <sodipodi:namedview
     id="base"
     pagecolor="#ffffff"
     bordercolor="#666666"
     borderopacity="1.0"
     inkscape:pageopacity="0.0"
     inkscape:pageshadow="2"
     inkscape:zoom="0.12374369"
     inkscape:cx="-298.53829"
     inkscape:cy="961.21122"
     inkscape:document-units="mm"
     inkscape:current-layer="layer1"
     showgrid="false"
     fit-margin-top="0"
     fit-margin-left="0"
     fit-margin-right="0"
     fit-margin-bottom="0"
     inkscape:window-width="1920"
     inkscape:window-height="1043"
     inkscape:window-x="0"
     inkscape:window-y="0"
     inkscape:window-maximized="1"
     showguides="true"
     inkscape:guide-bbox="true"
     objecttolerance="1"
     guidetolerance="1" />
  <metadata
     id="metadata5">
    <rdf:RDF>
      <cc:Work
         rdf:about="">
        <dc:format>image/svg+xml</dc:format>
        <dc:type
           rdf:resource="http://purl.org/dc/dcmitype/StillImage" />
        <dc:title></dc:title>
      </cc:Work>
    </rdf:RDF>
  </metadata>
  <g
     inkscape:label="Layer 1"
     inkscape:groupmode="layer"
     id="layer1"
     transform="translate(55.487568,695.23751)">
    <path
       style="opacity:0.98999999;fill:#000000;fill-opacity:0.99215686;fill-rule:nonzero;stroke:none;stroke-width:79.225914;stroke-linecap:round;stroke-linejoin:round;stroke-miterlimit:10;stroke-dasharray:none;stroke-dashoffset:0;stroke-opacity:1;paint-order:normal"
       d="m 199.34447,-637.02745 c -9.02978,-0.56597 -31.18076,-7.56737 -31.81934,-8.2105 -1.1681,-1.17648 42.05829,-20.31078 55.39781,-25.22888 8.51358,-3.13888 49.28685,-5.82807 89.61203,-5.91039 39.4919,-0.0804 46.32472,17.87584 24.12313,32.50336 l -7.52658,8.50313 -56.68456,-0.31413 c -31.17652,-0.17281 -64.07264,-0.77689 -73.10249,-1.34259 z"
       id="path4599"
       inkscape:connector-curvature="0"
       sodipodi:nodetypes="scssscss" />
    <path
       style="opacity:0.98999999;fill:#000000;fill-opacity:1;fill-rule:nonzero;stroke:none;stroke-width:56.02118301;stroke-linecap:round;stroke-linejoin:round;stroke-miterlimit:10;stroke-dasharray:none;stroke-dashoffset:0;stroke-opacity:1;paint-order:normal"
       d="m 496.98985,231.51744 c -0.46416,-0.46416 -0.83723,-2.03059 -0.82912,-3.48101 0.007,-1.45042 -2.54191,-7.76368 -5.66673,-14.02946 -6.64648,-13.32726 -8.60788,-20.48714 -11.96331,-43.67063 -1.81049,-12.50945 -3.49842,-19.33872 -6.29913,-25.48628 -4.74891,-10.42367 -8.21331,-27.46731 -10.79359,-53.099804 -5.01804,-49.850071 -20.31132,-107.953441 -51.00492,-177.229104 -5.24529,-11.838662 -12.80731,-28.075472 -16.80452,-36.081752 -19.06873,-38.19426 -27.58767,-72.62747 -30.37726,-122.78404 -1.48592,-26.71567 -3.09247,-45.0039 -5.76658,-65.64161 -1.02451,-7.90682 -2.42376,-30.40666 -3.10942,-49.9997 -0.68559,-19.59297 -1.80561,-40.18057 -2.48892,-45.75017 -3.81095,-31.06507 -13.93536,-194.92732 -13.96021,-224.60231 l -0.007,-8.40106 11.57457,-12.23015 c 6.36604,-6.72659 16.84685,-13.12378 18.95875,-14.21586 3.52682,-1.82376 3.96694,-1.81197 5.39767,0.14467 0.85672,1.17172 2.49328,7.36202 3.63673,13.75626 1.14346,6.39418 4.61181,25.29667 7.7075,42.00541 7.01185,37.8461 7.98384,48.38612 15.12496,112.40436 9.68584,86.83035 10.33165,89.94612 30.90164,149.08357 41.81244,120.20811 63.01745,182.70883 72.41836,246.00431 5.33712,35.933931 13.51065,84.100495 18.14543,103.6432998 3.9792,16.7782652 14.18686,53.9317442 20.629,67.8476802 2.57834,5.569602 7.61044,14.781767 11.18247,20.471463 8.91471,14.200057 18.25005,31.289837 21.71673,39.756067 3.48282,8.50554 3.26266,9.10038 -9.21076,24.88454 -4.53284,5.73592 -12.20885,17.12823 -17.0579,25.3163 -10.53559,17.79044 -37.32381,44.51201 -43.21785,49.00768 -4.18476,3.19186 -7.2085,4.00538 -8.83655,2.37733 z"
       id="path4561"
       inkscape:connector-curvature="0"
       sodipodi:nodetypes="ccsccsssssssccsccscssssccccsscc" />
    <path
       style="opacity:0.98999999;fill:#000000;fill-opacity:1;fill-rule:nonzero;stroke:none;stroke-width:56.02118301;stroke-linecap:round;stroke-linejoin:round;stroke-miterlimit:10;stroke-dasharray:none;stroke-dashoffset:0;stroke-opacity:1;paint-order:normal"
       d="m 382.25503,234.97782 c -13.57588,-0.50501 -41.48712,-1.51666 -62.02496,-2.24753 -20.53784,-0.73094 -88.60702,-1.67306 -151.26486,-2.09355 -119.386351,-0.80126 -145.67383,-1.70728 -164.7306388,-5.6777 -14.8702462,-3.09816 -38.9841782,-6.61367 -41.2326482,-8.47976 -2.174258,-1.80447 -0.02679,-35.73434 1.781335,-106.85774 2.100783,-82.649069 -3.823471,33.71092 3.153485,-6.58225 1.687726,-9.746786 -0.06497,-27.68954 1.028416,-36.043911 2.669631,-20.402341 8.016035,-31.081269 11.910704,-44.149591 l 3.302111,-11.079996 193.532226,0.320827 210.24096,18.042284 45.87436,7.377689 c 42.65215,6.859476 0.58539,12.007851 14.25022,61.356051 1.83314,20.243337 14.80709,37.061117 20.53931,55.325097 2.51284,8.00628 0.58004,29.33527 2.26817,38.73397 1.68846,9.39864 8.97686,23.80546 10.72655,29.82723 1.74974,6.02171 -5.60778,9.02992 -5.4104,9.96682 0.25519,1.2111 -1.83608,1.9399 -7.23603,2.52154 -9.78141,1.05364 -55.07306,0.91834 -86.70831,-0.25921 z"
       id="path4559"
       inkscape:connector-curvature="0"
       sodipodi:nodetypes="cssscsssscccscsscccsc" />
  </g>
</svg>
