<?xml version="1.0" encoding="UTF-8" standalone="no"?>
<!-- Created with Inkscape (http://www.inkscape.org/) -->

<svg
   xmlns:dc="http://purl.org/dc/elements/1.1/"
   xmlns:cc="http://creativecommons.org/ns#"
   xmlns:rdf="http://www.w3.org/1999/02/22-rdf-syntax-ns#"
   xmlns:svg="http://www.w3.org/2000/svg"
   xmlns="http://www.w3.org/2000/svg"
   xmlns:sodipodi="http://sodipodi.sourceforge.net/DTD/sodipodi-0.dtd"
   xmlns:inkscape="http://www.inkscape.org/namespaces/inkscape"
   width="651.08704mm"
   height="1000mm"
   viewBox="0 0 651.08703 1000"
   version="1.1"
   id="svg8"
   inkscape:version="0.92.4 5da689c313, 2019-01-14"
   sodipodi:docname="shape.svg"
   inkscape:export-filename="../images/bg-outer.png"
   inkscape:export-xdpi="367.38025"
   inkscape:export-ydpi="367.38025">
  <defs
     id="defs2" />
  <sodipodi:namedview
     id="base"
     pagecolor="#ffffff"
     bordercolor="#666666"
     borderopacity="1.0"
     inkscape:pageopacity="0.0"
     inkscape:pageshadow="2"
     inkscape:zoom="0.98994949"
     inkscape:cx="914.83306"
     inkscape:cy="1379.5298"
     inkscape:document-units="mm"
     inkscape:current-layer="layer1"
     showgrid="false"
     fit-margin-top="0"
     fit-margin-left="0"
     fit-margin-right="0"
     fit-margin-bottom="0"
     inkscape:window-width="1920"
     inkscape:window-height="1043"
     inkscape:window-x="0"
     inkscape:window-y="0"
     inkscape:window-maximized="1"
     showguides="true"
     inkscape:guide-bbox="true"
     objecttolerance="1"
     guidetolerance="1" />
  <metadata
     id="metadata5">
    <rdf:RDF>
      <cc:Work
         rdf:about="">
        <dc:format>image/svg+xml</dc:format>
        <dc:type
           rdf:resource="http://purl.org/dc/dcmitype/StillImage" />
        <dc:title />
      </cc:Work>
    </rdf:RDF>
  </metadata>
  <g
     inkscape:label="Layer 1"
     inkscape:groupmode="layer"
     id="layer1"
     transform="translate(55.487568,695.23751)">
    <path
       style="fill:#000000;stroke-width:10.34861851"
       d="M 1357.5254 0 C 1103.7143 0 1009.6096 12.039551 939.92188 53.423828 C 913.13942 69.328798 863.30639 90.099827 829.18164 99.583984 C 795.05712 109.06792 758.66137 122.91941 748.30078 130.36523 C 737.94023 137.81105 722.50868 143.9043 714.00977 143.9043 C 705.51108 143.9043 681.166 166.83839 659.9082 194.86914 C 624.29137 241.83453 621.2401 250.6761 621.18945 307.49805 C 621.04693 438.1203 557.61901 770.89794 507.22852 905.39258 C 494.8729 938.37032 473.78877 986.93781 460.375 1013.3203 C 424.24024 1084.3904 388.92969 1182.8098 388.92969 1212.4609 C 388.92969 1226.7906 376.57467 1265.4795 361.47266 1298.4375 C 346.3709 1331.395 326.42101 1391.3724 317.14062 1431.7188 C 307.86049 1472.0654 284.40092 1540.4028 265.00781 1583.5801 C 244.61553 1628.9813 218.20738 1714.9256 202.38086 1787.4004 C 187.32973 1856.3251 162.86575 1960.3578 148.01562 2018.584 C 133.16575 2076.8099 121.01562 2134.9943 121.01562 2147.8828 C 121.01563 2160.7708 114.86186 2191.0935 107.33984 2215.2676 C 95.054856 2254.7495 82.56274 2330.3303 58.244141 2512.3164 C 53.837355 2545.2942 46.077448 2593.8619 40.998047 2620.2441 C 35.918392 2646.6264 27.803685 2823.0235 22.966797 3012.2402 C 18.129912 3201.457 10.117033 3380.5715 5.1601562 3410.2715 C -5.1118022 3471.8212 -0.43946094 3497.7519 22.699219 3507.6133 C 35.804406 3513.1985 278.65221 3573.6035 288.00195 3573.6035 C 289.48287 3573.6035 290.69531 3606.9843 290.69531 3647.7812 C 290.69531 3707.4359 294.49738 3727.3919 310.11328 3749.7129 L 310.11328 3749.7031 C 339.00068 3790.9935 420.04826 3789.1186 474.98047 3745.8906 C 528.04521 3704.1314 543.4829 3671.3217 535.83203 3616.5586 L 529.83008 3573.5938 L 934.92773 3573.9004 C 1393.5507 3574.2368 1646.813 3587.5505 1658.3262 3611.9258 C 1662.3899 3620.529 1665.7756 3646.0309 1665.8516 3668.5957 C 1666.0688 3733.7756 1686.1199 3753.4844 1752.2129 3753.4844 C 1827.4852 3753.4844 1848.3194 3729.0278 1839.5957 3650.9121 L 1833.6406 3597.5879 L 1968.9082 3597.5879 C 2156.9833 3597.5879 2137.403 3613.1082 2369.8262 3279.8008 C 2383.624 3260.0143 2409.7379 3225.8486 2427.8574 3203.877 C 2445.9769 3181.9055 2460.8008 3154.3843 2460.8008 3142.7188 C 2460.8008 3131.0529 2448.7452 3099.1583 2434.0098 3071.8438 C 2419.2746 3044.5291 2407.2188 3017.42 2407.2188 3011.5996 C 2407.2188 3005.779 2385.4144 2968.204 2358.7656 2928.0996 C 2269.3669 2793.5622 2237.8002 2695.1366 2183.1074 2380.4043 C 2172.7919 2321.044 2158.9355 2232.0041 2152.3145 2182.5371 C 2145.6937 2133.0704 2132.6767 2060.2178 2123.3887 2020.6445 C 2092.5675 1889.3206 1986.5919 1543.9157 1910.6484 1327.2598 C 1869.4482 1209.7217 1829.9198 1080.2083 1822.8066 1039.4531 C 1809.9321 965.68877 1805.8153 931.79192 1772.3066 623.58203 C 1762.626 534.5415 1749.3745 437.40659 1742.8574 407.72656 C 1736.3402 378.04631 1721.8709 299.79949 1710.7051 233.84375 C 1699.5393 167.88797 1686.4714 102.3591 1681.6641 88.224609 C 1676.8571 74.090386 1652.2169 48.458444 1626.9082 31.263672 C 1580.9721 0.076711245 1580.5084 0 1357.5254 0 z M 1385.8906 84.880859 C 1455.6104 84.908667 1493.7759 87.736908 1497.9121 93.291016 C 1510.3816 110.03542 1498.0384 136.78051 1460.8301 173.64258 L 1430.3262 203.86328 L 1146.2852 203.86328 C 871.40941 203.86328 821.4753 197.1398 891.26953 169.52344 C 907.23278 163.20668 950.43322 143.22664 987.27148 125.12305 C 1051.8415 93.390776 1062.0634 92.004571 1271.4922 86.585938 C 1315.9894 85.434752 1354.1998 84.868219 1385.8906 84.880859 z M 1612.9297 135.99805 C 1625.9453 135.35969 1629.8391 154.27771 1647.0801 254.30078 C 1658.7833 322.19667 1673.7211 402.03095 1680.2754 431.71094 C 1686.8299 461.39123 1700.1126 558.52614 1709.793 647.56641 C 1743.3704 956.40691 1747.4288 989.73322 1760.8965 1067.2852 C 1768.3418 1110.1564 1784.1109 1172.2136 1795.9395 1205.1914 C 1971.6176 1694.9844 2069.1124 2030.4874 2093.8887 2230.5039 C 2104.3117 2314.6483 2125.703 2440.5486 2157.0508 2602.2559 C 2180.5659 2723.5605 2236.087 2877.0502 2281.0508 2945.0605 C 2328.1068 3016.2362 2380.4277 3116.5365 2380.4277 3135.5684 C 2380.4277 3144.6153 2363.3477 3171.6391 2342.4727 3195.623 C 2321.5974 3219.6075 2294.1381 3259.1525 2281.4531 3283.5 C 2251.8779 3340.2655 2170.8474 3453.5383 2140.4629 3480.5879 C 2110.734 3507.0527 2094.6523 3507.3109 2094.6523 3481.3223 C 2094.6523 3470.1407 2085.4185 3447.2069 2074.1348 3430.3574 C 2050.4265 3394.9545 2035.8343 3340.7415 2027.1523 3255.8164 C 2023.7809 3222.8384 2015.8872 3187.7624 2009.6094 3177.8691 C 1987.3962 3142.8616 1971.2463 3071.3413 1964.8457 2979.625 C 1950.3573 2772.0105 1856.7772 2487.5992 1698.0312 2168.7207 C 1673.9046 2120.2567 1649.2367 2061.7173 1643.2148 2038.6328 C 1605.3628 1893.5295 1595.4953 1830.6801 1590.4941 1702.8574 C 1587.5265 1627.0084 1579.3302 1532.5732 1572.2793 1493 C 1565.2286 1453.4262 1559.0777 1367.0827 1558.6094 1301.127 C 1558.1415 1235.1709 1554.112 1154.2256 1549.6543 1121.248 C 1538.731 1040.4351 1505.7913 555.09157 1499.6016 383.74219 L 1494.6211 245.83594 L 1539.0273 195.46484 C 1563.4508 167.76117 1592.9658 141.8913 1604.6172 137.97461 C 1607.7958 136.90609 1610.5194 136.11626 1612.9297 135.99805 z M 1068.3496 291.39648 C 1149.3152 291.24517 1226.4416 292.68653 1277.5234 296.13867 L 1420.4102 305.79492 L 1422.6484 359.75977 C 1423.8785 389.43953 1430.7382 502.76281 1437.8926 611.58984 C 1445.0473 720.41688 1453.4106 855.32641 1456.4785 911.38867 C 1459.5464 967.45116 1467.7406 1061.8878 1474.6875 1121.248 C 1481.6346 1180.6081 1487.3366 1282.6226 1487.3555 1347.9453 L 1531.3574 2036.0996 L 1369.873 2021.3477 C 1267.3188 2014.3765 1003.8853 1999.1596 989.5293 2016.6055 C 987.94214 2018.5341 986.35468 2020.5815 984.78125 2022.709 L 985.30859 2019.8008 C 973.85621 2010.2961 684.52292 2190.5564 641.51367 2237.4102 C 597.70728 2285.1322 546.63593 2316.841 412.68555 2379.4844 C 359.43626 2404.3872 304.00864 2438.1612 289.51367 2454.5391 C 275.01845 2470.9172 196.73364 2488.1968 194.10547 2484.668 C 183.80313 2470.8335 294.80576 1716.4305 331.81641 1624.5137 C 353.30634 1571.1431 378.46875 1497.8943 387.73242 1461.7383 C 396.99609 1425.5828 417.13316 1366.122 432.48047 1329.6055 C 447.82803 1293.0887 460.38477 1249.7876 460.38477 1233.3789 C 460.38477 1216.9696 476.48515 1168.8378 496.16406 1126.4199 C 556.67919 995.98019 599.88576 874.55226 628.41016 754.75 C 658.44837 628.58922 692.57617 415.36763 692.57617 353.86523 C 692.57617 320.91278 696.53109 313.32498 717.13477 306.74414 C 745.21139 297.77706 913.77888 291.68536 1068.3496 291.39648 z M 971.57031 2114.4375 C 1002.2756 2129.1965 1282.1218 2125.0955 1381.6172 2131.4199 L 1557.0664 2142.9453 C 1580.2358 2150.3038 1595.8144 2152.1254 1605.6836 2150.1172 L 1829.0234 2696.082 L 1320.3242 2653.252 C 1183.8085 2657.6036 1001.7918 2659.9151 915.83789 2658.3887 C 829.88199 2656.8614 648.03575 2654.0897 511.73438 2652.2266 C 375.43302 2650.3649 192.87305 2639.7189 192.87305 2636.8398 C 192.87305 2616.1007 355.79478 2520.8701 384.94141 2509.2539 C 538.80562 2447.9317 615.15962 2402.8177 680.37695 2334.6914 C 709.39711 2304.3765 949.22242 2127.4143 971.57031 2114.4375 z M 127.26953 2751.1523 L 906.22852 2751.1523 L 1830.6543 2798.5137 C 1926.1308 2818.4093 1870.1681 2779.892 1901.7832 3010.7109 C 1908.0127 3099.7234 1921.4729 3164.3867 1952.9707 3256.6055 C 1962.1299 3283.4216 1969.623 3314.7843 1969.623 3326.3027 C 1969.623 3352.1792 1996.4176 3466.9121 2006.6309 3484.7676 C 2010.7521 3491.9701 2011.4783 3501.414 2008.2461 3505.7539 C 2000.8537 3515.6808 1655.4304 3512.4372 1500.7754 3500.9883 C 1436.9225 3496.2615 1141.5494 3491.7792 844.39062 3491.0273 C 337.90508 3489.7459 297.39746 3488.0823 196.93164 3464.4492 C 137.9878 3450.5838 86.608763 3435.2877 82.755859 3430.459 C 78.902196 3425.6299 79.676638 3259.5954 84.476562 3061.4922 C 164.74883 2670.6646 123.38954 2776.0694 127.26953 2751.1523 z "
       transform="matrix(0.26458333,0,0,0.26458333,-55.487568,-695.23751)"
       id="path866-6-3" />
  </g>
</svg>
