<?xml version="1.0" encoding="UTF-8" standalone="no"?>
<!-- Created with Inkscape (http://www.inkscape.org/) -->

<svg
   xmlns:dc="http://purl.org/dc/elements/1.1/"
   xmlns:cc="http://creativecommons.org/ns#"
   xmlns:rdf="http://www.w3.org/1999/02/22-rdf-syntax-ns#"
   xmlns:svg="http://www.w3.org/2000/svg"
   xmlns="http://www.w3.org/2000/svg"
   xmlns:sodipodi="http://sodipodi.sourceforge.net/DTD/sodipodi-0.dtd"
   xmlns:inkscape="http://www.inkscape.org/namespaces/inkscape"
   width="151.01558mm"
   height="151.01558mm"
   viewBox="0 0 151.01558 151.01558"
   version="1.1"
   id="svg8"
   inkscape:version="0.92.4 5da689c313, 2019-01-14"
   sodipodi:docname="icon.svg"
   inkscape:export-filename="../images/metronomek.png"
   inkscape:export-xdpi="86.120003"
   inkscape:export-ydpi="86.120003">
  <defs
     id="defs2" />
  <sodipodi:namedview
     id="base"
     pagecolor="#ffffff"
     bordercolor="#666666"
     borderopacity="1.0"
     inkscape:pageopacity="0.0"
     inkscape:pageshadow="2"
     inkscape:zoom="0.7"
     inkscape:cx="337.13514"
     inkscape:cy="322.58822"
     inkscape:document-units="mm"
     inkscape:current-layer="layer1"
     showgrid="false"
     fit-margin-top="0"
     fit-margin-left="0"
     fit-margin-right="0"
     fit-margin-bottom="0"
     inkscape:window-width="1920"
     inkscape:window-height="1043"
     inkscape:window-x="0"
     inkscape:window-y="0"
     inkscape:window-maximized="1"
     showguides="true"
     inkscape:guide-bbox="true">
    <sodipodi:guide
       position="39.6875,99.218751"
       orientation="1,0"
       id="guide822"
       inkscape:locked="false" />
    <sodipodi:guide
       position="-48.569939,65.578872"
       orientation="0,1"
       id="guide824"
       inkscape:locked="false" />
    <sodipodi:guide
       position="-48.758927,133.80358"
       orientation="0,1"
       id="guide826"
       inkscape:locked="false" />
  </sodipodi:namedview>
  <metadata
     id="metadata5">
    <rdf:RDF>
      <cc:Work
         rdf:about="">
        <dc:format>image/svg+xml</dc:format>
        <dc:type
           rdf:resource="http://purl.org/dc/dcmitype/StillImage" />
        <dc:title />
      </cc:Work>
    </rdf:RDF>
  </metadata>
  <g
     inkscape:label="Layer 1"
     inkscape:groupmode="layer"
     id="layer1"
     transform="translate(55.614574,-154.07097)">
    <path
       style="opacity:0.98999999;fill:#bdbdbd;fill-opacity:0.99215686;fill-rule:nonzero;stroke:none;stroke-width:11.82854748;stroke-linecap:round;stroke-linejoin:round;stroke-miterlimit:10;stroke-dasharray:none;stroke-dashoffset:0;stroke-opacity:1;paint-order:normal"
       d="m 9.33589,163.34243 c -1.34816,-0.0845 -3.94663,-0.7046 -4.04197,-0.80062 -0.1744,-0.17565 5.57066,-3.45765 7.56227,-4.19193 1.27109,-0.46864 7.3586,-0.87014 13.37921,-0.88243 5.8962,-0.012 6.91635,2.66889 3.60162,4.8528 l -1.12373,1.26953 -8.46309,-0.0469 c -4.6547,-0.0258 -9.56614,-0.11599 -10.91431,-0.20045 z"
       id="path4599"
       inkscape:connector-curvature="0"
       sodipodi:nodetypes="scssscss" />
    <path
       style="opacity:0.98999999;fill:#bdbdbd;fill-opacity:1;fill-rule:nonzero;stroke:none;stroke-width:8.3640461;stroke-linecap:round;stroke-linejoin:round;stroke-miterlimit:10;stroke-dasharray:none;stroke-dashoffset:0;stroke-opacity:1;paint-order:normal"
       d="m 53.77479,293.01748 c -0.0693,-0.0693 -0.125,-0.30317 -0.12379,-0.51972 10e-4,-0.21655 -0.37951,-1.15913 -0.84605,-2.09462 -0.99233,-1.98978 -1.28517,-3.05876 -1.78614,-6.52009 -0.27031,-1.86768 -0.52232,-2.8873 -0.94047,-3.80514 -0.70902,-1.55627 -1.22626,-4.10091 -1.6115,-7.92788 -0.7492,-7.44269 -3.03251,-16.11761 -7.61511,-26.46057 -0.78313,-1.76753 -1.91215,-4.19171 -2.50894,-5.38706 -2.84699,-5.70246 -4.11888,-10.84339 -4.53537,-18.33184 -0.22185,-3.98869 -0.46171,-6.71915 -0.86096,-9.80039 -0.15296,-1.1805 -0.36187,-4.53976 -0.46424,-7.46503 -0.10236,-2.92526 -0.26958,-5.99902 -0.3716,-6.83057 -0.56898,-4.63806 -2.08057,-29.10294 -2.08428,-33.53346 l -0.001,-1.25429 1.7281,-1.82598 c 0.95046,-1.00429 2.51526,-1.9594 2.83057,-2.12245 0.52656,-0.27229 0.59227,-0.27053 0.80588,0.0216 0.12791,0.17494 0.37225,1.09916 0.54297,2.05383 0.17072,0.95466 0.68855,3.77683 1.15074,6.27147 1.04688,5.65048 1.192,7.22412 2.25818,16.78214 1.44611,12.9639 1.54253,13.42909 4.61366,22.2584 6.24266,17.94725 9.4086,27.2787 10.81217,36.72881 0.79684,5.36499 2.01716,12.55633 2.70914,15.4741 0.5941,2.50502 2.11812,8.05209 3.07994,10.12976 0.38495,0.83155 1.13625,2.20694 1.66956,3.05642 1.33098,2.12009 2.72476,4.67162 3.24234,5.93564 0.51999,1.26989 0.48712,1.3587 -1.37518,3.7153 -0.67676,0.85638 -1.8228,2.55727 -2.54677,3.77976 -1.57298,2.65614 -5.5725,6.64571 -6.45249,7.31692 -0.62479,0.47655 -1.07624,0.59801 -1.31931,0.35494 z"
       id="path4561"
       inkscape:connector-curvature="0"
       sodipodi:nodetypes="ccsccsssssssccsccscssssccccsscc" />
    <path
       style="opacity:0.98999999;fill:#7c7c7c;fill-opacity:1;fill-rule:nonzero;stroke:none;stroke-width:8.3640461;stroke-linecap:round;stroke-linejoin:round;stroke-miterlimit:10;stroke-dasharray:none;stroke-dashoffset:0;stroke-opacity:1;paint-order:normal"
       d="m -7.10604,259.32183 c -1.24627,1.51532 -15.16212,0.63601 -15.16212,0.3873 0,-0.29526 3.02547,-5.57412 4.20503,-6.73305 1.05485,-1.03639 2.5731,-1.16434 4.90948,-2.18395 4.49989,-1.9638 6.84495,-3.39007 9.16592,-5.57476 1.27956,-1.20442 3.43961,-2.65092 7.74851,-5.18885 1.81901,-1.07139 3.48418,-2.05564 3.70039,-2.18722 0.2162,-0.13157 0.47558,-0.52314 0.5764,-0.87013 l 0.18331,-0.63091 2.16392,0.0537 c 8.37339,0.20793 22.17118,1.45081 23.4682,1.60061 l 1.53612,0.1163 0.1125,0.96676 c 0.0619,0.53172 5.07903,5.86275 5.18763,8.25345 0.22939,5.04942 2.91609,12.31725 3.66209,15.5449 0.3017,1.30533 -4.47386,-1.35915 -4.40619,-0.92828 l -0.1367,0.18762 -4.54088,-0.42041 c -8.94977,0.46008 -51.47388,12.7737 -43.17542,-1.05676 z"
       id="path4565"
       inkscape:connector-curvature="0"
       sodipodi:nodetypes="cssssscccssccsccccsc" />
    <path
       style="opacity:0.98999999;fill:#bdbdbd;fill-opacity:1;fill-rule:nonzero;stroke:none;stroke-width:8.3640461;stroke-linecap:round;stroke-linejoin:round;stroke-miterlimit:10;stroke-dasharray:none;stroke-dashoffset:0;stroke-opacity:1;paint-order:normal"
       d="m 36.64471,293.53412 c -2.0269,-0.0754 -6.19409,-0.22644 -9.26042,-0.33556 -3.06633,-0.10913 -13.22916,-0.24979 -22.58407,-0.31257 -17.82456,-0.11963 -21.74932,-0.2549 -24.59453,-0.84769 -2.22015,-0.46256 -4.95177,-1.2547 -5.28747,-1.53331 -0.32462,-0.26941 -0.87258,-5.06792 -0.60267,-15.68675 0.31365,-12.33963 -0.57085,5.03309 0.47082,-0.98274 0.25198,-1.45521 0.59168,-3.66637 0.7549,-4.91369 0.39858,-3.0461 0.59545,-5.1082 1.17693,-7.05932 l 0.49301,-1.65426 28.89465,0.0479 31.38929,2.69374 6.84911,1.1015 c 6.36803,1.02413 0.0874,1.79279 2.12758,9.16055 0.27369,3.02236 2.21072,5.53328 3.06655,8.26012 0.37517,1.19535 0.0866,4.3798 0.33864,5.78304 0.25209,1.40323 1.34026,3.55419 1.60149,4.45325 0.26124,0.89905 -0.83725,1.34818 -0.80778,1.48806 0.0381,0.18082 -0.27413,0.28963 -1.08035,0.37647 -1.46038,0.15731 -8.22249,0.13711 -12.94568,-0.0387 z"
       id="path4559"
       inkscape:connector-curvature="0"
       sodipodi:nodetypes="cssscsssscccscsscccsc" />
    <path
       style="opacity:0.98999999;fill:#7c7c7c;fill-opacity:1;fill-rule:nonzero;stroke:none;stroke-width:8.3640461;stroke-linecap:round;stroke-linejoin:round;stroke-miterlimit:10;stroke-dasharray:none;stroke-dashoffset:0;stroke-opacity:1;paint-order:normal"
       d="m -22.18124,253.30156 c 0.072,-0.54297 -0.20096,-4.51399 0.2018,-6.07588 0.70414,-2.7306 5.38618,-27.90927 7.08595,-32.63575 0.42867,-1.19198 0.70237,-2.52186 1.07019,-3.76374 0.36783,-1.24187 1.07837,-2.38413 1.57898,-3.69328 0.50061,-1.30915 1.38471,-3.97165 1.50269,-4.64624 0.30045,-1.71785 0.55834,-2.08166 1.8535,-5.00629 1.54415,-3.48691 2.65539,-7.10828 3.55531,-10.18506 1.3274,-4.53828 3.08318,-14.41743 3.33125,-18.48934 0.14337,-2.35321 1.05072,-2.76052 2.70621,-3.00125 2.1072,-0.30642 19.52344,-1.33213 23.2406,-0.31652 l 4.8097,0.83207 0.63408,2.52563 c 0.0726,0.46774 -1.04957,5.73384 -0.62117,12.85397 0.42839,7.12012 1.41799,14.38199 1.62163,16.25297 0.23185,2.13007 -0.52588,5.17754 0.0134,8.67639 l 1.86234,30.43699 -3.91901,-1.39494 c -5.54333,-1.9731 -13.36265,-0.55938 -17.38942,0.0431 -1.89252,0.28314 -2.93353,0.88638 -7.11577,3.36997 -3.72813,2.21393 -5.61066,3.92675 -7.04917,5.27778 -1.69235,1.58945 -3.54951,2.70585 -7.7149,4.78904 -3.89334,1.94714 -9.34332,5.21858 -10.51958,6.2958 -0.43944,0.40244 3.19661,-2.89542 3.12892,-2.89542 -0.0677,0 -3.27136,1.69391 -3.19935,1.15094 z"
       id="path4563"
       inkscape:connector-curvature="0"
       sodipodi:nodetypes="ccsscccssssccssscssscssscc" />
    <path
       inkscape:connector-curvature="0"
       id="path866-6-3"
       d="m -16.46062,302.77529 c -0.61687,-0.88174 -0.76705,-1.67006 -0.76705,-4.02658 0,-1.61159 -0.0479,-2.93018 -0.1064,-2.93018 -0.36934,0 -9.96248,-2.38618 -10.48017,-2.60681 -0.91404,-0.38955 -1.09859,-1.41389 -0.69282,-3.84527 0.19581,-1.17323 0.51234,-8.24868 0.70341,-15.72325 0.19107,-7.47457 0.51157,-14.4428 0.71223,-15.48497 0.20065,-1.04217 0.50725,-2.96072 0.68133,-4.26343 0.96065,-7.18894 1.4541,-10.17455 1.93939,-11.73419 0.29714,-0.95494 0.54025,-2.15281 0.54025,-2.66192 0,-0.50913 0.47996,-2.80757 1.06657,-5.10765 0.58662,-2.30009 1.55303,-6.40963 2.14759,-9.13234 0.62519,-2.86295 1.66834,-6.25799 2.47389,-8.05146 0.76608,-1.70562 1.69282,-4.40513 2.05941,-5.99893 0.3666,-1.59379 1.15465,-3.96301 1.75121,-5.26492 0.59657,-1.30193 1.08467,-2.83028 1.08467,-3.39634 0,-1.1713 1.3948,-5.05912 2.82222,-7.86658 0.52988,-1.04218 1.36276,-2.96072 1.85084,-4.26343 1.99056,-5.3129 4.49619,-18.45856 4.50182,-23.61849 0.002,-2.24462 0.12249,-2.59385 1.52945,-4.44911 0.83974,-1.10729 1.80148,-2.01328 2.1372,-2.01328 0.33573,0 0.94527,-0.24064 1.35454,-0.53477 0.40927,-0.29413 1.84705,-0.8413 3.19506,-1.21594 1.34802,-0.37465 3.31654,-1.19523 4.37452,-1.82352 2.75285,-1.63479 6.4702,-2.11035 16.49642,-2.11035 8.80843,0 8.82677,0.003 10.64137,1.23497 0.99976,0.67924 1.97311,1.69181 2.163,2.25015 0.1899,0.55835 0.70615,3.14689 1.14723,5.75232 0.44108,2.60543 1.0126,5.69641 1.27005,6.86886 0.25744,1.17244 0.78095,5.00953 1.16336,8.52687 1.32368,12.17512 1.48628,13.51416 1.99486,16.42805 0.28099,1.60994 1.84251,6.72607 3.47003,11.36914 2.99997,8.55849 7.18628,22.20291 8.4038,27.39056 0.3669,1.56325 0.88107,4.44107 1.14261,6.39514 0.26155,1.95408 0.80893,5.4714 1.21642,7.81629 2.16051,12.43277 3.4075,16.32083 6.93899,21.63542 1.0527,1.58423 1.914,3.06854 1.914,3.29847 0,0.22992 0.47625,1.30088 1.05833,2.37988 0.58209,1.079 1.05834,2.33887 1.05834,2.7997 0,0.46082 -0.58563,1.54799 -1.3014,2.41592 -0.71577,0.86794 -1.74734,2.21758 -2.29239,2.9992 -9.18134,13.16654 -8.40786,12.55344 -15.83733,12.55344 h -5.34345 l 0.23524,2.10648 c 0.34461,3.08578 -0.47838,4.05182 -3.45184,4.05182 -2.61085,0 -3.40289,-0.77854 -3.41147,-3.35332 -0.003,-0.89137 -0.13674,-1.89876 -0.29727,-2.23861 -0.4548,-0.96289 -10.45933,-1.48877 -28.57617,-1.50206 l -16.00246,-0.0121 0.23711,1.69717 c 0.30223,2.16329 -0.30761,3.45942 -2.40381,5.10902 -2.16997,1.70762 -5.3716,1.78165 -6.51273,0.15057 z m 67.08082,-9.63702 c 0.12768,-0.17144 0.099,-0.5445 -0.0638,-0.82902 -0.40345,-0.70534 -1.46188,-5.23755 -1.46188,-6.25974 0,-0.45501 -0.29602,-1.69398 -0.65783,-2.75329 -1.24425,-3.64289 -1.776,-6.19725 -2.02208,-9.71348 -1.24888,-9.11797 0.96178,-7.59642 -2.8098,-8.38235 L 7.08757,263.3295 h -30.77099 c -0.15327,0.98429 1.48053,-3.17948 -1.69044,12.25926 -0.18961,7.82561 -0.22023,14.38444 -0.068,14.5752 0.1522,0.19075 2.18182,0.79497 4.51026,1.34269 3.96867,0.93357 5.56885,0.99926 25.57639,1.04988 11.73857,0.0297 23.4066,0.20678 25.92896,0.3935 6.10929,0.45226 19.75446,0.58038 20.04648,0.18824 z m 5.2229,-0.99414 c 1.20027,-1.06853 4.40125,-5.54308 5.56955,-7.78547 0.50109,-0.96179 1.58576,-2.5239 2.41039,-3.47135 0.82462,-0.94743 1.49931,-2.01501 1.49931,-2.37239 0,-0.75181 -2.06679,-4.71387 -3.92563,-7.5255 -1.77619,-2.68659 -3.96942,-8.74991 -4.89833,-13.54177 -1.23832,-6.38787 -2.0833,-11.36122 -2.49504,-14.68515 -0.97873,-7.90119 -4.83007,-21.15446 -11.76983,-40.5026 -0.46726,-1.30271 -1.09019,-3.75418 -1.3843,-5.44771 -0.53201,-3.06351 -0.6923,-4.37999 -2.0187,-16.58002 -0.3824,-3.51733 -0.90712,-7.35441 -1.16604,-8.52686 -0.25891,-1.17244 -0.849,-4.32613 -1.31131,-7.0082 -0.80719,-4.68288 -0.87377,-4.86531 -1.67738,-4.59517 -0.46026,0.15472 -1.62621,1.17669 -2.591,2.27106 l -1.75417,1.98974 0.19679,5.44771 c 0.24451,6.76876 1.54565,25.94113 1.97715,29.13346 0.17609,1.3027 0.33528,4.50027 0.35376,7.10571 0.0185,2.60543 0.26148,6.01617 0.54,7.57944 0.27853,1.56325 0.60233,5.29376 0.71956,8.29 0.19756,5.04934 0.58738,7.53203 2.08264,13.264 0.23788,0.9119 1.21229,3.22438 2.16536,5.13884 6.27089,12.59656 9.96757,23.83154 10.5399,32.03287 0.25284,3.62304 0.89078,6.44829 1.76826,7.83118 0.24799,0.39081 0.55985,1.77643 0.69303,3.07915 0.34296,3.35477 0.91941,5.49627 1.85595,6.89478 0.44574,0.6656 0.81044,1.57159 0.81044,2.01329 0,1.02662 0.63527,1.01643 1.80964,-0.029 z M 23.44546,259.46219 43.54041,261.1541 33.0303,235.46168 c 0.67021,0.30686 4.85864,5.45904 -0.23291,3.842 l -6.93069,-0.45526 c -4.06423,-0.25834 -15.77552,-0.10453 -16.31597,-0.76129 -0.84405,-1.02572 -0.84999,-1.72984 -0.023,-2.73476 0.5671,-0.68916 11.82383,-1.12748 15.875,-0.85215 l 6.37912,0.58274 -1.73825,-27.18395 c -7.9e-4,-2.58042 -0.22596,-6.61022 -0.50039,-8.9551 -0.27442,-2.34489 -0.59809,-6.0754 -0.71928,-8.29002 -0.12119,-2.21461 -0.45157,-7.5439 -0.7342,-11.84286 -0.28262,-4.29896 -0.55362,-8.77557 -0.60221,-9.948 l -0.0884,-2.13172 -5.64444,-0.38146 c -5.87017,-0.39671 -20.44675,-0.12086 -22.13681,0.41891 -0.8139,0.25996 -0.97014,0.55973 -0.97014,1.86144 0,2.42951 -1.34819,10.85232 -2.53478,15.83601 -1.12679,4.73251 -2.83353,9.52927 -5.22404,14.68199 -0.77737,1.67562 -1.4134,3.57693 -1.4134,4.22514 0,0.64819 -0.49603,2.35875 -1.1023,3.80126 -0.60626,1.4425 -1.4017,3.79131 -1.76764,5.21955 -0.36594,1.42826 -1.35991,4.32178 -2.20882,6.43006 -1.46202,3.63096 -5.84695,33.4319 -5.43998,33.9784 0.10382,0.1394 3.19631,-0.54314 3.76891,-1.19012 0.57259,-0.64697 2.7621,-1.98116 4.86559,-2.96489 5.2914,-2.47458 7.30886,-3.72718 9.03933,-5.61233 1.69898,-1.85085 12.75041,-8.26285 13.20281,-7.88739 0.77031,0.63928 0.0679,4.93419 -0.80692,4.93419 -0.20974,0 -9.67057,5.55288 -10.8607,6.79611 -2.57626,2.69117 -5.5924,4.47331 -11.67045,6.8957 -1.15137,0.45887 -7.58727,4.22074 -7.58727,5.03999 0,0.11373 7.21164,0.53425 12.59591,0.60779 5.38427,0.0736 12.56771,0.18311 15.9632,0.24344 3.39549,0.0603 10.5859,-0.031 15.97868,-0.20291 z m 5.55036,-97.95125 c 1.46983,-1.45615 1.9574,-2.51267 1.46482,-3.17412 -0.23766,-0.31913 -3.31937,-0.41039 -8.9442,-0.26487 -8.273,0.21405 -8.67675,0.26879 -11.22744,1.5223 -1.45521,0.71514 -3.16177,1.5044 -3.79236,1.75393 -2.75706,1.09092 -0.78451,1.35656 10.07382,1.35656 h 11.22035 z"
       style="fill:#000000;stroke-width:0.40879822"
       sodipodi:nodetypes="cssccscscsccccsscsccssccsccscccssccsscsccsccsccccscccccsccccccccsccccscscccccccssccscccscccsccscccccccccccccccccscsscsccccscccsccscccccccccscc" />
    <path
       style="opacity:0.98999999;fill:#bdbdbd;fill-opacity:1;fill-rule:nonzero;stroke:none;stroke-width:13.48158932;stroke-linecap:round;stroke-linejoin:round;stroke-miterlimit:10;stroke-dasharray:none;stroke-dashoffset:0;stroke-opacity:1;paint-order:normal"
       d="m 5.9249,259.24895 c -1.79575,-0.24931 -2.13031,-0.92312 -2.20266,-4.43606 -0.0496,-2.40627 0.88603,-13.18333 1.35528,-15.61149 0.14368,-0.74347 0.33372,-11.64116 0.42893,-24.59674 0.20515,-27.91558 0.54433,-44.02625 0.95899,-45.55109 0.48633,-1.78837 1.2974,-2.56695 8.51379,-2.34386 6.81697,0.21072 7.68811,0.96236 7.90877,1.86552 0.69331,2.83763 0.9889,45.97425 0.37774,55.12429 -0.23797,3.56274 -0.20199,7.35614 0.18114,19.1013 0.34928,10.70728 0.39989,14.87863 0.18785,15.48317 -0.25757,0.73436 -0.52312,0.7303 -2.35963,0.93196 -2.43555,0.26745 -13.23205,0.32707 -15.3502,0.033 z"
       id="path4597"
       inkscape:connector-curvature="0"
       sodipodi:nodetypes="cccscsccscccc" />
    <path
       style="opacity:0.98999999;fill:#ffff00;fill-opacity:1;fill-rule:nonzero;stroke:none;stroke-width:19.06584549;stroke-linecap:round;stroke-linejoin:round;stroke-miterlimit:10;stroke-dasharray:none;stroke-dashoffset:0;stroke-opacity:1;paint-order:normal"
       d="m 6.93272,254.09277 c 0.2688,-2.6034 0.6417,-4.38178 0.97652,-4.65701 0.29791,-0.24489 1.4458,-0.44863 2.55087,-0.45278 2.4872,-0.009 3.47143,-0.64576 3.47143,-2.24482 0,-1.47195 -0.84465,-2.00259 -3.87425,-2.43393 l -2.17336,-0.30945 v -4.53099 c 0,-2.86944 0.16633,-4.74706 0.45357,-5.12019 0.2676,-0.34762 1.5539,-0.58922 3.1372,-0.58922 2.86957,0 3.59077,-0.46002 3.59077,-2.29043 0,-1.37395 -0.75287,-1.90271 -3.31189,-2.32599 -1.09394,-0.18096 -2.22231,-0.44533 -2.5075,-0.58748 -0.66665,-0.33232 -1.09407,-9.61854 -0.69733,-15.15058 l 0.28012,-3.9059 1.66021,-0.52374 c 0.95271,-0.30054 1.89071,-0.97468 2.20107,-1.58188 0.48492,-0.94872 0.45981,-1.16344 -0.2428,-2.07615 -0.43102,-0.5599 -1.25141,-1.02138 -1.8231,-1.02552 -1.83723,-0.0132 -2.03103,-0.49296 -2.04081,-5.05129 -0.005,-2.32448 0.10075,-4.45716 0.23498,-4.73928 0.13423,-0.28213 0.82932,-0.51296 1.54466,-0.51296 1.48535,0 2.92178,-1.5138 2.56915,-2.70753 -0.24761,-0.83823 -2.04665,-2.2025 -2.90438,-2.2025 -1.35954,0 -1.48849,-1.18341 -1.20378,-11.04725 l 0.27637,-9.57486 h 5.81734 5.81734 v 3.365 c 0,1.85074 -0.10778,4.70452 -0.23951,6.34172 l -0.23951,2.97673 -2.12284,0.65506 c -1.74643,0.53892 -2.14475,0.85575 -2.24636,1.78685 -0.1678,1.53766 0.56541,2.55073 1.84608,2.55073 0.58468,0 1.50652,0.21903 2.04855,0.48674 0.95971,0.47399 0.98261,0.58643 0.87505,4.29627 l -0.11045,3.80955 -1.27324,0.15819 c -0.70029,0.087 -1.7635,-0.10561 -2.3627,-0.428 -0.85385,-0.45944 -1.21198,-0.4541 -1.65607,0.0247 -0.59795,0.64464 -0.75125,2.7903 -0.26966,3.77418 0.40101,0.81924 2.17739,1.6251 3.6019,1.634 2.05971,0.013 2.18961,0.35401 2.06928,5.43454 l -0.10951,4.62349 -1.51191,0.40944 c -3.6268,0.98215 -3.77682,1.06963 -3.91015,2.27995 -0.17461,1.58505 0.83342,2.46613 2.82147,2.46613 2.24898,0 2.94059,1.01558 2.63889,3.87498 -0.129,1.22259 -0.37877,2.41024 -0.55505,2.63923 -0.17628,0.229 -1.32275,0.54405 -2.54771,0.70013 -2.43697,0.31049 -3.17215,0.8006 -3.17215,2.11472 0,1.30863 0.85678,1.96764 2.9835,2.29484 2.92397,0.44985 3.14811,0.82506 3.14811,5.26989 0,2.09858 -0.17419,4.04189 -0.3871,4.31847 -0.2129,0.27658 -1.16023,0.61607 -2.10517,0.75443 -0.99912,0.14628 -1.9864,0.63673 -2.35931,1.17199 -0.60384,0.86677 -0.60103,0.97816 0.0481,1.9099 0.37913,0.54421 1.33742,1.12408 2.12955,1.28862 2.37767,0.4939 2.6776,1.03768 2.66078,4.82415 -0.0164,3.70216 -0.13988,3.92266 -2.46653,4.40595 -1.779,0.36955 -2.51797,1.02691 -2.51797,2.23991 0,1.21937 0.83565,1.9712 2.51761,2.26508 2.9447,0.5145 3.15203,0.64065 3.15203,1.9178 v 1.21815 H 13.80551 6.4979 Z"
       id="path939-7"
       inkscape:connector-curvature="0" />
    <g
       id="g875"
       inkscape:transform-center-x="-21.043326"
       inkscape:transform-center-y="-40.364624"
       transform="rotate(23.868494,12.704622,261.3358)">
      <path
         sodipodi:nodetypes="cc"
         inkscape:connector-curvature="0"
         id="path856"
         d="M 12.988104,259.7294 12.799116,174.49578"
         style="fill:none;stroke:#00001c;stroke-width:5;stroke-linecap:round;stroke-linejoin:round;stroke-miterlimit:4;stroke-dasharray:none;stroke-opacity:1" />
      <path
         sodipodi:nodetypes="ccccccc"
         inkscape:connector-curvature="0"
         id="path856-3"
         d="m 3.0165055,182.24102 v 9.71399 l 4.98353,8.63173 h 9.0393905 l 5.73129,-8.63173 -0.13364,-9.9354 z"
         style="fill:#999999;fill-opacity:1;stroke:#00001c;stroke-width:5;stroke-linecap:round;stroke-linejoin:round;stroke-miterlimit:4;stroke-dasharray:none;stroke-opacity:1" />
    </g>
  </g>
</svg>
