<?xml version="1.0" encoding="UTF-8" standalone="no"?>
<!-- Created with Inkscape (http://www.inkscape.org/) -->

<svg
   xmlns:dc="http://purl.org/dc/elements/1.1/"
   xmlns:cc="http://creativecommons.org/ns#"
   xmlns:rdf="http://www.w3.org/1999/02/22-rdf-syntax-ns#"
   xmlns:svg="http://www.w3.org/2000/svg"
   xmlns="http://www.w3.org/2000/svg"
   xmlns:sodipodi="http://sodipodi.sourceforge.net/DTD/sodipodi-0.dtd"
   xmlns:inkscape="http://www.inkscape.org/namespaces/inkscape"
   width="151.01558mm"
   height="151.01558mm"
   viewBox="0 0 151.01558 151.01558"
   version="1.1"
   id="svg8"
   inkscape:version="0.92.4 5da689c313, 2019-01-14"
   sodipodi:docname="icon.svg"
   inkscape:export-filename="./icon.png"
   inkscape:export-xdpi="24.220018"
   inkscape:export-ydpi="24.220018">
  <defs
     id="defs2" />
  <sodipodi:namedview
     id="base"
     pagecolor="#ffffff"
     bordercolor="#666666"
     borderopacity="1.0"
     inkscape:pageopacity="0.0"
     inkscape:pageshadow="2"
     inkscape:zoom="0.7"
     inkscape:cx="271.3094"
     inkscape:cy="103.28165"
     inkscape:document-units="mm"
     inkscape:current-layer="layer1"
     showgrid="false"
     fit-margin-top="0"
     fit-margin-left="0"
     fit-margin-right="0"
     fit-margin-bottom="0"
     inkscape:window-width="1920"
     inkscape:window-height="1043"
     inkscape:window-x="0"
     inkscape:window-y="0"
     inkscape:window-maximized="1"
     showguides="true"
     inkscape:guide-bbox="true">
    <sodipodi:guide
       position="39.6875,99.218751"
       orientation="1,0"
       id="guide822"
       inkscape:locked="false" />
    <sodipodi:guide
       position="-48.569939,65.578872"
       orientation="0,1"
       id="guide824"
       inkscape:locked="false" />
    <sodipodi:guide
       position="-48.758927,133.80358"
       orientation="0,1"
       id="guide826"
       inkscape:locked="false" />
  </sodipodi:namedview>
  <metadata
     id="metadata5">
    <rdf:RDF>
      <cc:Work
         rdf:about="">
        <dc:format>image/svg+xml</dc:format>
        <dc:type
           rdf:resource="http://purl.org/dc/dcmitype/StillImage" />
        <dc:title></dc:title>
      </cc:Work>
    </rdf:RDF>
  </metadata>
  <g
     inkscape:label="Layer 1"
     inkscape:groupmode="layer"
     id="layer1"
     transform="translate(55.614574,-154.07097)">
    <path
       inkscape:connector-curvature="0"
       id="path874"
       d="m -9.1627126,304.60384 c -1.2039854,-0.85434 -1.7594974,-2.53868 -1.7656404,-5.35353 l -0.0052,-2.38274 -3.792361,-0.85348 c -6.755241,-1.52026 -7.055557,-1.64423 -7.408376,-3.058 -0.174457,-0.69908 -0.191413,-2.01713 -0.03768,-2.92903 0.153733,-0.91191 0.434162,-7.7434 0.623174,-15.18111 0.224313,-8.82679 0.536875,-14.74922 0.900029,-17.05373 0.306003,-1.94184 0.72897,-4.70306 0.939926,-6.13605 0.210956,-1.43298 0.699523,-4.3108 1.085706,-6.39514 0.386182,-2.08435 0.837865,-4.6424 1.003741,-5.68457 0.165875,-1.04219 0.867665,-4.1327 1.559533,-6.86782 0.691868,-2.73514 1.591804,-6.57223 1.999857,-8.52686 0.408054,-1.95466 1.350959,-4.91082 2.095346,-6.56925 0.744387,-1.65844 1.703815,-4.42967 2.1320617,-6.15829 0.4282477,-1.72863 1.2288494,-4.1258 1.7791141,-5.32706 0.5502657,-1.20126 1.0020334,-2.58687 1.0039284,-3.07915 0.0045,-1.17657 1.4668471,-5.36031 2.7565695,-7.88662 1.6387291,-3.20994 2.7113515,-6.37981 4.04602249,-11.957 1.45020801,-6.05998 1.95679771,-9.31905 2.33504081,-15.02215 0.2635656,-3.97403 0.3246856,-4.19423 1.6517211,-5.95069 1.378578,-1.82469 4.1817356,-3.39916 7.3459029,-4.12604 0.759971,-0.17459 2.533745,-0.93192 3.941717,-1.68296 3.509613,-1.87211 6.976403,-2.3516 17.002304,-2.3516 8.424925,0 8.620925,0.0222 10.449336,1.1837 2.188551,1.39028 2.892131,2.32506 3.209421,4.26401 0.1279,0.78164 0.76569,4.29953 1.41732,7.81755 0.65162,3.51802 1.502,9.27365 1.88972,12.79029 1.92426,17.45284 1.83725,17.01816 5.47489,27.35336 3.1182,8.85938 7.08552,21.84267 8.3312,27.26431 0.40702,1.7715 0.96226,4.86249 1.23386,6.86887 2.11226,15.60354 4.165,23.07276 7.86095,28.60341 0.92622,1.386 1.87488,3.05292 2.10814,3.70428 0.23326,0.65136 0.77032,1.76235 1.19346,2.46887 1.13906,1.90185 0.99892,3.87395 -0.41444,5.83205 -0.65109,0.90205 -1.46342,1.75925 -1.80517,1.9049 -0.34176,0.14565 -0.98342,1.05321 -1.42593,2.0168 -1.45642,3.1714 -6.40474,9.46581 -8.4433,10.7401 -1.73859,1.08678 -2.31447,1.18787 -6.79149,1.1921 l -4.89182,0.005 0.18855,1.30272 c 0.30725,2.12284 -0.6762,4.30475 -2.1022,4.66397 -1.77087,0.44611 -4.67365,-0.0345 -5.30163,-0.87773 -0.29813,-0.40033 -0.62271,-1.68866 -0.72127,-2.86294 -0.163,-1.9418 -0.27919,-2.16182 -1.283681,-2.4306 -0.60746,-0.16255 -10.375646,-0.42427 -21.707088,-0.58162 l -20.60260581,-0.28609 0.20295467,1.04216 c 0.62169367,3.19235 -2.52670236,6.71093 -6.26995726,7.00716 -1.2987131,0.10272 -2.4547915,-0.0724 -2.9916562,-0.45338 z m 34.2124836,-68.4855 c 0,-1.48302 -0.770463,-1.98961 -3.025973,-1.98961 -1.558047,0 -2.311492,-0.21388 -2.643015,-0.75027 -0.821863,-1.32977 0.03652,-2.3105 2.166849,-2.47566 1.041287,-0.0807 2.096499,-0.37331 2.344919,-0.65015 0.59588,-0.66408 0.59588,-5.32148 0,-5.98555 -0.24842,-0.27685 -1.303632,-0.56942 -2.344919,-0.65015 -3.480001,-0.26983 -3.366932,-3.22594 0.123388,-3.22594 1.004591,0 2.017028,-0.2558 2.249862,-0.56846 0.580055,-0.7789 0.554398,-6.2752 -0.03235,-6.92908 -0.250625,-0.2793 -1.543739,-0.57186 -2.873588,-0.65015 -1.791713,-0.10541 -2.513514,-0.34673 -2.787061,-0.93162 -0.703379,-1.50392 0.306133,-2.28984 2.94133,-2.28984 2.667944,0 3.056172,-0.34412 3.214291,-2.84911 0.157589,-2.49659 -0.160641,-2.83546 -2.662747,-2.83546 -2.478067,0 -3.475084,-0.81904 -2.787463,-2.28986 0.267613,-0.57243 0.985252,-0.82876 2.61185,-0.93292 1.233565,-0.079 2.447372,-0.37157 2.697347,-0.65015 0.590265,-0.65782 0.615358,-6.61702 0.03117,-7.40148 -0.234731,-0.31521 -1.361822,-0.56846 -2.529862,-0.56846 -2.231415,0 -3.396806,-0.81791 -3.396806,-2.38399 0,-1.48181 0.960893,-2.11708 2.253132,-1.48961 1.477913,0.71762 3.134678,0.71272 3.673536,-0.0108 0.232834,-0.31264 0.423334,-1.65562 0.423334,-2.9844 0,-1.32876 -0.1905,-2.67174 -0.423334,-2.9844 -0.232833,-0.31265 -1.245271,-0.56845 -2.249862,-0.56845 -1.236169,0 -1.976403,-0.2425 -2.290237,-0.75029 -0.814998,-1.31865 0.04063,-2.30046 2.238308,-2.56837 1.0806,-0.13173 2.036612,-0.3449 2.124474,-0.47372 0.08786,-0.12877 0.234795,-2.41921 0.326518,-5.08977 l 0.166772,-4.85557 h -6.031736 -6.031739 l -0.01937,3.19757 c -0.01065,1.75866 -0.150869,5.11975 -0.311577,7.46907 -0.331403,4.84466 -0.229771,5.11931 2.070414,5.59489 2.972347,0.61454 3.101069,3.38677 0.158316,3.40962 -0.84975,0.007 -1.743435,0.17907 -1.98597,0.38324 -0.581272,0.48936 -0.595863,6.54987 -0.01764,7.32631 0.232834,0.31264 1.086521,0.56845 1.897084,0.56845 2.925685,0 3.035117,2.94518 0.120019,3.23015 -0.849556,0.083 -1.746201,0.37561 -1.992542,0.65015 -0.642969,0.71655 -0.635004,13.79633 0.0089,14.51385 0.251206,0.27996 1.623635,0.57252 3.049845,0.65015 2.009743,0.10944 2.680384,0.32765 2.981046,0.97015 0.282466,0.60363 0.281478,1.05438 -0.0036,1.658 -0.333495,0.70604 -0.832609,0.80436 -3.365112,0.66288 -3.727394,-0.20821 -3.894442,0.003 -3.75235,4.74102 l 0.104278,3.47825 2.785749,0.23686 c 2.081509,0.17698 2.878977,0.43638 3.154542,1.02615 0.736452,1.57615 -0.297339,2.28984 -3.316834,2.28984 -1.819166,0 -2.855373,0.20161 -3.043609,0.59216 -0.156972,0.32567 -0.453425,2.03104 -0.658784,3.78971 l -0.37338,3.19757 h 7.517131 c 7.003533,0 7.517131,-0.0583 7.517131,-0.85268 z"
       style="fill:#cdcdcd;stroke-width:0.40879822" />
    <path
       inkscape:connector-curvature="0"
       id="path872"
       d="m -9.8137273,303.61581 c -0.6138317,-0.87738 -0.7670487,-1.67142 -0.7670487,-3.97521 0,-3.33851 0.7036797,-2.84068 -6.284196,-4.44588 -5.525306,-1.26922 -5.652474,-1.41214 -5.030966,-5.65417 0.220166,-1.50271 0.550057,-8.77619 0.733093,-16.16329 0.228841,-9.2358 0.501004,-14.28911 0.871318,-16.17805 0.296191,-1.51084 0.538528,-3.36352 0.538528,-4.11705 0,-0.75355 0.15875,-1.50182 0.352778,-1.66285 0.194027,-0.16103 0.355257,-0.973 0.358288,-1.80439 0.003,-0.83139 0.251263,-2.79063 0.551627,-4.35389 0.300364,-1.56327 0.674047,-3.69498 0.830407,-4.73715 0.15636,-1.04217 0.784959,-3.8134 1.396886,-6.15829 0.611928,-2.34489 1.600511,-6.49781 2.196852,-9.22873 0.596341,-2.7309 1.366026,-5.50213 1.710411,-6.15828 0.988137,-1.88268 2.3582557,-5.73454 2.8676217,-8.06186 0.2566057,-1.17244 0.9884524,-3.30416 1.6263238,-4.73715 0.6378727,-1.43299 1.1601764,-3.09356 1.1606754,-3.69016 0.001,-1.22392 1.0384234,-4.14862 2.4717258,-6.96842 3.25161587,-6.39704 6.6957489,-21.2078 6.7040519,-28.82935 0.0024,-2.24462 0.1224961,-2.59383 1.5294521,-4.44909 0.8397374,-1.10731 1.8014802,-2.01329 2.1372038,-2.01329 0.3357237,0 0.9452654,-0.24065 1.3545381,-0.53478 0.4092731,-0.29411 1.867273,-0.83824 3.2400004,-1.20915 2.290935,-0.61902 4.036099,-1.41168 5.554655,-2.52297 1.256034,-0.91917 6.829673,-1.41767 15.850576,-1.41767 7.927735,0 9.471766,0.11145 9.842046,0.71056 0.24154,0.39081 0.70753,0.71058 1.035521,0.71058 0.78183,0 2.49225,2.41699 2.49225,3.52179 0,0.82708 0.90209,5.89071 1.94657,10.9265 0.27019,1.30271 0.80603,5.2464 1.19075,8.76372 1.36306,12.46191 1.49371,13.5328 2.02291,16.58001 0.2941,1.69353 0.91703,4.14501 1.38429,5.44772 3.74332,10.43641 5.36105,15.30116 7.48268,22.50144 2.71859,9.2262 3.72215,13.44 4.28714,18.00116 0.41372,3.33987 1.26585,8.35087 2.49724,14.68515 0.69262,3.56282 1.20757,5.25082 3.04209,9.97197 0.25822,0.66455 1.34678,2.51003 2.41903,4.10109 1.07224,1.59104 1.94953,3.15091 1.94953,3.46635 0,0.31544 0.47625,1.3019 1.05833,2.19211 1.71924,2.62937 1.48365,3.84868 -1.41111,7.30335 -1.35819,1.6209 -2.46944,3.18722 -2.46944,3.48072 0,0.99603 -5.85518,8.36129 -7.57814,9.5326 -1.59132,1.08181 -2.08747,1.16497 -6.94971,1.16497 h -5.23605 l 0.2184,1.83399 c 0.15774,1.32462 0.0496,2.1798 -0.38918,3.07914 -0.56927,1.16666 -0.77952,1.24516 -3.33455,1.24516 -3.13864,0 -3.89105,-0.64691 -3.90007,-3.3533 -0.003,-0.89138 -0.13711,-1.89958 -0.2981,-2.24044 -0.46604,-0.98673 -12.113667,-1.55581 -28.800676,-1.40714 l -14.81666181,0.132 0.11684507,1.11718 c 0.2311536,2.21013 -0.28888607,3.39114 -2.22588076,5.055 -1.7085341,1.4676 -2.1743408,1.64411 -4.3389096,1.64411 -2.0785838,0 -2.5344415,-0.15659 -3.1919452,-1.09639 z M 25.60441,236.81586 c 0.09884,-0.34588 0.01842,-1.19857 -0.178732,-1.89487 -0.333012,-1.17614 -0.5072,-1.26598 -2.45499,-1.26598 -2.380915,0 -3.212585,-0.30658 -3.212585,-1.18428 0,-0.86141 0.825391,-1.18429 3.027465,-1.18429 h 1.911426 v -4.02657 -4.02658 h -1.911426 c -2.202074,0 -3.027465,-0.32288 -3.027465,-1.18428 0,-0.86141 0.825391,-1.18429 3.027465,-1.18429 h 1.911426 v -4.50028 -4.50029 h -2.440592 c -2.714403,0 -3.556632,-0.28045 -3.556632,-1.18429 0,-0.90384 0.842229,-1.18428 3.556632,-1.18428 2.088018,0 2.441036,-0.11978 2.443657,-0.829 0.0018,-0.45595 0.103174,-1.94816 0.225528,-3.31601 l 0.222461,-2.487 h -2.313341 c -2.590906,0 -3.429382,-0.28955 -3.429382,-1.18429 0,-0.89104 0.83698,-1.18428 3.380243,-1.18428 h 2.264203 v -4.73715 -4.73715 h -2.093702 c -2.581765,0 -3.903521,-0.61988 -3.903521,-1.83071 0,-0.84174 0.214891,-0.88873 2.998611,-0.65552 l 2.998612,0.25121 v -4.09335 -4.09335 h -1.911425 c -2.229993,0 -3.027465,-0.32292 -3.027465,-1.22594 0,-0.72866 0.852241,-1.07012 3.13115,-1.25456 l 1.543647,-0.12488 0.04385,-5.44773 0.04385,-5.44771 h -6.52639 c -5.638945,0 -6.504087,0.0967 -6.362379,0.71057 0.206343,0.89397 0.171178,3.00487 -0.171637,10.30329 l -0.272578,5.80301 0.845658,0.003 c 1.498417,0.005 3.491491,0.96234 3.491491,1.67763 0,0.78488 -0.238696,0.85076 -2.557639,0.70589 l -1.675694,-0.10474 v 4.7807 4.78068 h 1.558646 c 1.862723,0 2.674687,0.35953 2.674687,1.1843 0,0.82477 -0.811964,1.18428 -2.674687,1.18428 H 11.64421 v 8.29 8.29001 h 2.61698 c 3.075245,0 3.73302,0.25935 3.73302,1.47183 0,0.81713 -0.298531,0.89674 -3.362459,0.89674 -2.382362,0 -3.402045,0.17261 -3.498258,0.59214 -0.07469,0.32569 -0.229383,2.4574 -0.343764,4.73715 l -0.20797,4.14501 h 2.61904 c 2.920239,0 3.735078,0.26745 3.735078,1.22593 0,0.81735 -0.931916,1.10655 -4.056945,1.25901 l -2.469445,0.12045 -0.389865,3.31601 c -0.2144247,1.8238 -0.4316617,3.52917 -0.4827477,3.78972 -0.05109,0.26054 -0.07409,0.63359 -0.05111,0.82899 0.02298,0.19541 3.6186317,0.3553 7.9903467,0.3553 6.281067,0 7.986276,-0.132 8.128291,-0.62888 z"
       style="fill:#bdbdbd;stroke-width:0.40879822" />
    <path
       inkscape:connector-curvature="0"
       id="path870"
       d="m -9.8046653,303.67004 c -0.2378887,-0.31945 -0.4233327,-1.85039 -0.4233327,-3.49486 0,-1.76434 -0.175108,-3.1207 -0.440973,-3.41572 -0.242534,-0.26912 -2.70418,-1.02959 -5.470322,-1.68993 -2.766143,-0.66034 -5.187081,-1.33152 -5.379862,-1.4915 -0.443659,-0.3682 -0.435921,-2.71643 0.01765,-5.35719 0.193004,-1.12371 0.497802,-8.0788 0.67733,-15.45575 0.310141,-12.74404 0.506596,-15.16988 1.786212,-22.05635 0.169445,-0.91189 0.401757,-2.61727 0.516248,-3.78972 0.24699,-2.52931 0.680763,-4.65565 3.189031,-15.63258 1.041863,-4.5595 2.002872,-8.82293 2.135576,-9.47429 0.132703,-0.65136 0.848188,-2.54119 1.589967,-4.19962 0.741779,-1.65844 1.6990727,-4.42967 2.1273207,-6.15829 0.4282467,-1.72863 1.2281711,-4.12433 1.7776078,-5.32378 0.5494377,-1.19945 1.1019454,-2.90483 1.2277954,-3.78971 0.2683107,-1.88658 1.2477931,-4.63713 2.5972325,-7.29347 0.5294297,-1.04218 1.3616131,-2.96072 1.8492958,-4.26343 2.03916206,-5.44708 4.8526581,-19.78582 4.8526581,-24.73115 0,-3.60487 2.2046498,-5.62906 7.9374967,-7.28774 1.164167,-0.33682 2.970171,-1.11365 4.013342,-1.72628 2.773369,-1.62873 5.789965,-1.98935 16.777376,-2.00565 9.226225,-0.0137 9.949856,0.0473 11.348537,0.9565 0.82167,0.53411 1.63382,1.22692 1.80477,1.53957 0.17096,0.31265 0.68232,2.70016 1.13637,5.30559 0.45404,2.60543 1.0363,5.69641 1.29389,6.86887 0.2576,1.17243 0.79972,5.22269 1.20472,9.00056 0.405,3.77789 0.88246,7.72155 1.06104,8.76372 0.17857,1.04217 0.32855,2.61798 0.33329,3.50179 0.0151,2.81834 1.41298,8.07438 4.41825,16.61304 3.09906,8.8051 7.09448,21.89415 8.24777,27.01978 0.38106,1.69353 0.8637,4.46476 1.07254,6.15829 0.20884,1.69352 0.67794,4.78452 1.04244,6.86886 2.28776,13.08224 3.67952,17.54881 7.01166,22.5025 1.01864,1.51437 1.85208,2.95701 1.85208,3.20588 0,0.24888 0.47625,1.25723 1.05833,2.24078 0.75992,1.28403 1.05834,2.29988 1.05834,3.60265 0,1.63434 -0.18378,2.00083 -1.85209,3.6935 -1.01864,1.03352 -2.12077,2.47933 -2.44916,3.21292 -0.92771,2.07237 -6.03443,8.94862 -7.37376,9.92883 -0.97925,0.71669 -2.24503,0.92305 -6.84583,1.11611 l -5.64444,0.23685 -0.10564,2.44844 c -0.0581,1.34664 -0.32052,2.68792 -0.58317,2.98061 -0.29354,0.32715 -1.61074,0.47889 -3.4187,0.39386 l -2.94116,-0.13832 -0.24652,-2.32279 c -0.13559,-1.27751 -0.4653,-2.61655 -0.7327,-2.97562 -0.758941,-1.01911 -12.827518,-1.62703 -29.190186,-1.47038 l -14.28749481,0.13678 -0.11245,2.12243 c -0.128566,2.42661 -0.41984662,3.01701 -2.25660969,4.57401 -1.0978514,0.93062 -1.7872388,1.11985 -4.0797596,1.11985 -1.6752671,0 -2.9249312,-0.22324 -3.1820092,-0.56845 z M 56.703191,292.27719 c -0.62425,-3.72027 -1.65924,-8.54103 -1.93733,-9.02369 -0.62106,-1.07791 -1.45924,-5.34733 -1.69603,-8.63902 -0.54909,-7.63314 -5.16819,-22.01314 -9.80923,-30.53775 L 42.10003,241.94502 H 14.088671 -13.922658 l -0.460944,1.29142 c -0.253519,0.71028 -0.705032,2.94859 -1.003361,4.97401 -0.29833,2.02542 -0.677269,4.42868 -0.842088,5.34058 -1.192127,6.59575 -1.467054,10.11352 -1.77561,22.71947 -0.1815,7.41512 -0.212564,13.61939 -0.06903,13.78727 0.143534,0.16787 2.25468,0.76257 4.691436,1.32154 4.1738914,0.95746 5.6652615,1.01945 25.752769,1.07031 11.727273,0.0297 23.386072,0.20678 25.908434,0.39352 2.522361,0.18671 7.739933,0.37558 11.594603,0.41971 l 7.00848,0.0802 z m 8.36386,-3.41911 c 1.46787,-1.94564 2.66885,-3.74998 2.66885,-4.00962 0,-0.25966 0.98262,-1.75525 2.1836,-3.32355 l 2.1836,-2.85145 -0.70736,-1.07364 c -0.38905,-0.59049 -0.99549,-1.69477 -1.34764,-2.45393 -0.35216,-0.75916 -1.22924,-2.25136 -1.94906,-3.31599 -0.71983,-1.06465 -1.54958,-2.57524 -1.84388,-3.35686 -0.29431,-0.78163 -0.93916,-2.487 -1.43301,-3.78971 -1.22082,-3.22039 -3.09123,-12.60508 -4.31477,-21.64913 -0.27143,-2.00638 -0.82653,-5.09736 -1.23355,-6.86887 -1.14899,-5.00086 -5.13635,-18.2477 -7.38605,-24.53804 -3.52296,-9.85046 -3.85854,-10.90341 -4.39011,-13.7748 -0.5165,-2.79002 -0.70566,-4.30647 -2.00439,-16.06922 -0.99161,-8.98104 -3.167921,-20.61222 -3.851731,-20.58536 -0.29721,0.0121 -1.319001,0.95822 -2.270651,2.10341 l -1.730271,2.08218 0.22664,4.64703 c 0.37431,7.67506 1.646961,25.79677 1.989741,28.33275 0.17609,1.30272 0.33528,4.50029 0.35375,7.10572 0.0185,2.60542 0.26149,6.01617 0.54001,7.57943 0.27853,1.56326 0.600931,5.29376 0.716441,8.29001 0.1435,3.72199 0.48936,6.72325 1.09178,9.47429 1.174681,5.36429 1.196841,5.43003 3.173961,9.41763 6.32222,12.75118 9.98019,23.88128 10.55477,32.11492 0.24732,3.54401 1.12992,7.3123 1.85327,7.91261 0.1877,0.15578 0.44733,1.29841 0.57696,2.53919 0.35534,3.40132 1.28716,6.91749 2.0173,7.61211 0.35785,0.34046 0.65065,0.92668 0.65065,1.30272 0,1.42149 1.09776,0.57045 3.68115,-2.85383 z M 25.542353,237.46769 c 1.750678,-0.54533 2.048809,-1.1816 1.786448,-3.81268 -0.18644,-1.86965 -0.799778,-15.29297 -0.876627,-19.18544 -0.01542,-0.78162 0.151853,-3.65943 0.371746,-6.39515 0.403771,-5.02326 0.234501,-35.29547 -0.217671,-38.93078 -0.119323,-0.9593 -0.478656,-1.89933 -0.798519,-2.08894 -0.819204,-0.48563 -10.277916,-0.83635 -12.500264,-0.4635 -1.015147,0.17032 -2.065493,0.49206 -2.334109,0.71498 -1.0107327,0.83881 -1.4199017,8.64959 -1.4532207,27.7411 -0.03019,17.30121 -0.2203747,23.11718 -1.0223674,31.26516 -0.6352253,6.45368 -0.7688333,9.48189 -0.4462326,10.11374 0.179561,0.35171 0.8629326,0.80951 1.518605,1.01736 1.6608567,0.52652 14.2981137,0.54562 15.9722117,0.0242 z m 10.528294,-76.46214 c 0.72572,-0.74548 1.23228,-1.54487 1.12571,-1.77642 -0.25781,-0.56014 -12.332549,-0.5131 -15.624979,0.0608 -2.769729,0.48285 -6.752164,2.20411 -6.752164,2.91838 0,0.25201 4.138969,0.37322 9.965974,0.2918 l 9.965978,-0.13922 z"
       style="fill:#8e8e8e;stroke-width:0.40879822" />
    <path
       inkscape:connector-curvature="0"
       id="path868"
       d="m -9.6441553,303.37219 c -0.4092267,-0.60721 -0.5838427,-1.73229 -0.5838427,-3.76176 0,-1.59251 -0.150939,-3.02073 -0.335419,-3.17382 -0.184481,-0.15311 -2.605419,-0.81855 -5.379862,-1.47876 -2.774443,-0.66022 -5.265731,-1.49181 -5.536195,-1.84799 -0.406097,-0.53479 -0.419608,-1.14001 -0.07757,-3.47456 0.227801,-1.55483 0.568554,-8.87094 0.757229,-16.25804 0.188675,-7.3871 0.507259,-14.28377 0.707966,-15.32594 0.200707,-1.04217 0.507351,-2.96071 0.68143,-4.26343 0.947542,-7.09086 1.472203,-10.37486 1.781515,-11.15094 0.189942,-0.47657 0.348794,-1.36014 0.353004,-1.9635 0.0042,-0.60335 0.565597,-3.22871 1.247525,-5.83414 0.681927,-2.60544 1.725728,-6.97153 2.319557,-9.70245 0.59383,-2.7309 1.36146,-5.50213 1.705845,-6.15828 0.988137,-1.88268 2.3582547,-5.73454 2.8676214,-8.06186 0.2566057,-1.17244 0.9884514,-3.30416 1.6263241,-4.73715 0.6378727,-1.43299 1.1601764,-3.09356 1.1606744,-3.69016 10e-4,-1.22392 1.0384244,-4.14862 2.4717265,-6.96842 3.24068317,-6.37553 6.7013979,-21.23111 6.7013979,-28.76666 0,-2.12502 0.14318,-2.56537 1.3696075,-4.21223 0.7532843,-1.01152 1.6368451,-1.83913 1.9634687,-1.83913 0.3266247,0 0.9287214,-0.24064 1.3379941,-0.53477 0.4092731,-0.29413 1.847049,-0.8413 3.1950594,-1.21594 1.348014,-0.37465 3.316542,-1.19523 4.374516,-1.82352 2.773352,-1.64696 6.477113,-2.11035 16.867867,-2.11035 8.424975,0 9.308276,0.0775 10.546536,0.92521 1.829461,1.25246 2.678301,2.35319 2.678301,3.47309 0,0.88798 0.8745,5.82865 1.94656,10.99743 0.2702,1.30271 0.80603,5.2464 1.19075,8.76372 1.36098,12.44285 1.49329,13.53017 1.99907,16.42805 0.28099,1.60996 1.8424,6.72607 3.4698,11.36915 5.16664,14.74082 8.87526,28.00925 9.70815,34.73313 0.41245,3.32963 1.26002,8.31663 2.49583,14.68515 0.98699,5.0863 3.17219,10.67452 5.55912,14.21638 1.01912,1.51222 1.85294,2.95312 1.85294,3.202 0,0.24888 0.47625,1.25722 1.05833,2.24077 1.47657,2.49497 1.39004,3.98764 -0.35379,6.10318 -0.77667,0.94221 -1.55747,1.71312 -1.73512,1.71312 -0.17764,0 -0.6901,0.79939 -1.1388,1.77642 -1.11632,2.43074 -6.19467,9.25096 -7.7084,10.35235 -1.01594,0.73919 -2.23487,0.94034 -6.87916,1.13523 l -5.64445,0.23685 0.1154,2.05406 c 0.17625,3.13726 -0.50855,3.86739 -3.6273,3.86739 -2.8851,0 -3.36727,-0.4076 -3.36727,-2.8465 0,-3.24875 -0.12812,-3.31182 -7.770514,-3.82501 -3.778372,-0.25374 -13.616651,-0.40194 -21.862832,-0.32934 l -14.99305041,0.132 0.1111166,1.38468 c 0.195302,2.43377 -0.22920062,3.45988 -2.05566069,4.96897 -1.5244621,1.25959 -2.1047238,1.46263 -4.1796876,1.46263 -1.8862278,0 -2.5362545,-0.18813 -2.9933092,-0.8663 z M 56.578321,290.14548 c -0.45859,-1.75866 -0.83547,-3.62392 -0.8375,-4.145 -0.002,-0.52109 -0.25231,-1.58695 -0.55614,-2.36857 -1.02947,-2.64835 -1.85545,-6.6182 -2.11312,-10.15607 -0.54656,-7.5048 -4.89201,-21.01187 -9.45816,-29.39911 l -1.160541,-2.13171 -28.270576,-0.12126 -28.270551,-0.12126 -0.520693,1.3521 c -0.286381,0.74365 -0.699864,2.82334 -0.918853,4.62153 -0.218987,1.7982 -0.532675,4.01555 -0.697084,4.92744 -1.29608,7.18879 -1.466879,9.31098 -1.777881,22.09035 -0.179982,7.39566 -0.420014,13.94301 -0.533403,14.54967 -0.200486,1.07264 -0.08594,1.13121 4.159947,2.12751 4.131057,0.96934 5.5140131,1.0274 25.688413,1.0785 11.727273,0.0297 23.386067,0.20678 25.908438,0.39351 2.522362,0.18672 8.097324,0.37558 12.388804,0.41971 l 7.80271,0.0802 z m 8.69192,-1.07096 c 1.55014,-2.08715 2.81843,-3.98766 2.81843,-4.22336 0,-0.23571 0.98496,-1.71878 2.18879,-3.29571 l 2.18879,-2.86716 -0.71255,-1.08105 c -0.3919,-0.59458 -1.00067,-1.70219 -1.35283,-2.46135 -0.35215,-0.75916 -1.23593,-2.25136 -1.96394,-3.31599 -1.81149,-2.6491 -4.3627,-9.6264 -5.29787,-14.48916 -1.25958,-6.54962 -2.08264,-11.40608 -2.48883,-14.68515 -0.20978,-1.69353 -0.71059,-4.57134 -1.11291,-6.39514 -1.56741,-7.10533 -7.24032,-25.20165 -10.46939,-33.39688 -0.85153,-2.16114 -2.14592,-8.02495 -2.14592,-9.72136 0,-0.73106 -0.24363,-3.15955 -0.54139,-5.39665 -0.29776,-2.23708 -0.84878,-6.62549 -1.2245,-9.752 -0.37572,-3.12653 -0.86964,-6.64385 -1.0976,-7.8163 -0.22797,-1.17244 -0.72621,-3.78379 -1.1072,-5.80299 -0.403131,-2.13651 -0.877931,-3.6713 -1.135751,-3.6713 -0.24366,0 -1.277501,0.90599 -2.297421,2.01328 l -1.854401,2.0133 0.20456,5.68457 c 0.24942,6.93113 1.548081,26.11045 1.988701,29.3703 0.17609,1.30272 0.33528,4.50029 0.35375,7.10572 0.0185,2.60544 0.26245,6.01618 0.54215,7.57943 0.2797,1.56326 0.615241,5.40035 0.745641,8.52686 0.13041,3.12653 0.46481,6.53727 0.74311,7.57944 0.27831,1.04218 0.702071,2.85413 0.941691,4.02658 0.23963,1.17243 1.21854,3.69809 2.17537,5.61254 6.36128,12.72796 10.32354,24.72677 10.90185,33.0138 0.26766,3.83558 0.61945,5.38473 1.63754,7.21112 0.32849,0.58929 0.70568,2.29466 0.83821,3.78971 0.13253,1.49506 0.50509,3.36843 0.82791,4.16307 1.24004,3.05239 2.01454,4.47078 2.44282,4.47366 0.24461,10e-4 1.71305,-1.70468 3.26319,-3.79183 z m -38.45658,-51.58204 c 1.008581,-0.37916 1.006611,-0.30054 0.35791,-14.25919 -0.455904,-9.81023 -0.455548,-9.70576 -0.0462,-13.50085 0.416831,-3.86478 0.469991,-31.69748 0.0722,-37.79807 -0.14935,-2.29038 -0.463178,-4.4221 -0.697397,-4.73715 -0.523759,-0.70451 -13.410755,-1.09375 -15.23474,-0.46015 -1.076918,0.37408 -1.241094,0.64903 -1.5060117,2.52216 -0.163534,1.15628 -0.4326837,12.01479 -0.5981107,24.13004 -0.165427,12.11525 -0.3187757,22.45408 -0.3407747,22.97517 -0.022,0.52108 0.06423,1.61739 0.1916287,2.43623 0.145243,0.93356 0.0335,2.08192 -0.2996337,3.07915 -0.292193,0.87468 -0.6316196,3.08253 -0.7542802,4.90634 -0.1226611,1.8238 -0.3927231,3.95551 -0.6001367,4.73714 -0.2436641,0.91824 -0.2668631,2.16889 -0.06556,3.53417 0.2460446,1.66869 0.4952496,2.18174 1.1850999,2.43977 1.1456824,0.42856 17.1944321,0.42439 18.3360421,-0.005 z m 9.372156,-76.13517 c 2.324051,-2.38032 1.925331,-2.55066 -5.932574,-2.53457 -8.527751,0.0175 -11.216927,0.43924 -14.728473,2.31008 l -2.645834,1.40961 11.047845,0.0277 11.047845,0.0277 z"
       style="fill:#7c7c7c;stroke-width:0.40879822" />
    <path
       inkscape:connector-curvature="0"
       id="path866"
       d="m -9.4609496,303.1421 c -0.6168764,-0.88174 -0.7670484,-1.67006 -0.7670484,-4.02658 0,-1.61159 -0.04788,-2.93018 -0.106403,-2.93018 -0.369335,0 -9.962478,-2.38618 -10.480174,-2.60681 -0.914033,-0.38955 -1.09859,-1.41389 -0.692811,-3.84527 0.195802,-1.17323 0.512333,-8.24868 0.703403,-15.72325 0.191071,-7.47457 0.511573,-14.4428 0.712229,-15.48497 0.200655,-1.04217 0.507257,-2.96072 0.681336,-4.26343 0.960647,-7.18894 1.4541,-10.17455 1.93939,-11.73419 0.297138,-0.95494 0.540251,-2.15281 0.540251,-2.66192 0,-0.50913 0.479956,-2.80757 1.066569,-5.10765 0.586613,-2.30009 1.553027,-6.40963 2.147586,-9.13234 0.625188,-2.86295 1.668345,-6.25799 2.473889,-8.05146 0.76608,-1.70562 1.6928167,-4.40513 2.0594144,-5.99893 0.3665987,-1.59379 1.1546424,-3.96301 1.7512081,-5.26492 0.5965667,-1.30193 1.0846654,-2.83028 1.0846654,-3.39634 0,-1.1713 1.3947961,-5.05912 2.8222212,-7.86658 0.5298807,-1.04218 1.3627584,-2.96072 1.8508401,-4.26343 1.99055766,-5.3129 4.4961891,-18.45856 4.5018101,-23.61849 0.0024,-2.24462 0.122496,-2.59385 1.5294511,-4.44911 0.8397387,-1.10729 1.8014811,-2.01328 2.1372048,-2.01328 0.3357231,0 0.9452658,-0.24064 1.3545384,-0.53477 0.4092717,-0.29413 1.8470497,-0.8413 3.1950594,-1.21594 1.348013,-0.37465 3.316542,-1.19523 4.374515,-1.82352 2.752853,-1.63479 6.470206,-2.11035 16.496429,-2.11035 8.808435,0 8.826775,0.003 10.641376,1.23497 0.999761,0.67924 1.973111,1.69181 2.163001,2.25015 0.1899,0.55835 0.70615,3.14689 1.14723,5.75232 0.44108,2.60543 1.0126,5.69641 1.27005,6.86886 0.25744,1.17244 0.78095,5.00953 1.16336,8.52687 1.32368,12.17512 1.48628,13.51416 1.99486,16.42805 0.28099,1.60994 1.84251,6.72607 3.47003,11.36914 2.99997,8.55849 7.18627,22.20291 8.4038,27.39056 0.36689,1.56325 0.88106,4.44107 1.14261,6.39514 0.26154,1.95408 0.80893,5.4714 1.21641,7.81629 2.16052,12.43277 3.40751,16.32083 6.93899,21.63542 1.0527,1.58423 1.914,3.06854 1.914,3.29847 0,0.22992 0.47625,1.30088 1.05833,2.37988 0.58209,1.079 1.05834,2.33887 1.05834,2.7997 0,0.46082 -0.58563,1.54799 -1.3014,2.41592 -0.71577,0.86794 -1.74734,2.21758 -2.29239,2.9992 -9.18134,13.16654 -8.40786,12.55344 -15.83732,12.55344 h -5.34345 l 0.23524,2.10648 c 0.34461,3.08578 -0.47838,4.05182 -3.45184,4.05182 -2.61085,0 -3.40289,-0.77854 -3.41147,-3.35332 -0.003,-0.89137 -0.13674,-1.89876 -0.29727,-2.23861 -0.4548,-0.96289 -10.459336,-1.48877 -28.576185,-1.50206 l -16.00245143,-0.0121 0.23710902,1.69717 c 0.3022256,2.16329 -0.30761302,3.45942 -2.40381179,5.10902 -2.1699698,1.70762 -5.371593,1.78165 -6.5127214,0.15057 z m 67.0808206,-9.63702 c 0.12767,-0.17144 0.099,-0.5445 -0.0638,-0.82902 -0.40345,-0.70534 -1.46188,-5.23755 -1.46188,-6.25974 0,-0.45501 -0.29602,-1.69398 -0.65783,-2.75329 -1.24425,-3.64289 -1.776,-6.19725 -2.02208,-9.71348 -0.52562,-7.51046 -5.13007,-21.76713 -9.80095,-30.34652 L 42.45276,241.47131 H 14.087232 -14.278316 l -0.594609,1.658 c -0.327035,0.9119 -0.775997,3.1502 -0.997694,4.97401 -0.221697,1.82379 -0.538737,4.0621 -0.704532,4.97399 -1.30277,7.16541 -1.469771,9.28917 -1.799037,22.87826 -0.189616,7.82561 -0.220231,14.38444 -0.06803,14.5752 0.152198,0.19075 2.181814,0.79497 4.510259,1.34269 3.9686667,0.93357 5.5688438,0.99926 25.576381,1.04988 11.738569,0.0297 23.406604,0.20678 25.928966,0.3935 6.109293,0.45226 19.754453,0.58038 20.046483,0.18824 z m 5.22289,-0.99414 c 1.20027,-1.06853 4.40125,-5.54308 5.56955,-7.78547 0.5011,-0.96179 1.58577,-2.5239 2.41039,-3.47135 0.82462,-0.94743 1.49931,-2.01501 1.49931,-2.37239 0,-0.75181 -2.06679,-4.71387 -3.92563,-7.5255 -1.77619,-2.68659 -3.96942,-8.74991 -4.89833,-13.54177 -1.23832,-6.38787 -2.0833,-11.36122 -2.49504,-14.68515 -0.97873,-7.90119 -4.83006,-21.15446 -11.76982,-40.5026 -0.46726,-1.30271 -1.09019,-3.75418 -1.3843,-5.44771 -0.53201,-3.06351 -0.6923,-4.37999 -2.0187,-16.58002 -0.3824,-3.51733 -0.90712,-7.35441 -1.16604,-8.52686 -0.25891,-1.17244 -0.849,-4.32613 -1.31131,-7.0082 -0.807191,-4.68288 -0.873771,-4.86531 -1.677381,-4.59517 -0.460261,0.15472 -1.626211,1.17669 -2.591002,2.27106 l -1.754171,1.98974 0.196791,5.44771 c 0.24451,6.76876 1.54565,25.94113 1.977151,29.13346 0.17609,1.3027 0.33528,4.50027 0.35376,7.10571 0.0185,2.60543 0.26148,6.01617 0.54,7.57944 0.27853,1.56325 0.60233,5.29376 0.71956,8.29 0.197561,5.04934 0.587381,7.53203 2.082642,13.264 0.23788,0.9119 1.21229,3.22438 2.16536,5.13884 6.27089,12.59656 9.96757,23.83154 10.5399,32.03287 0.25284,3.62304 0.89077,6.44829 1.76826,7.83118 0.24798,0.39081 0.55984,1.77643 0.69302,3.07915 0.34296,3.35477 0.91941,5.49627 1.85595,6.89478 0.44574,0.6656 0.81044,1.57159 0.81044,2.01329 0,1.02662 0.63527,1.01643 1.80964,-0.029 z M 30.445123,237.604 l 9.805076,-0.31261 -0.22023,-1.4629 c -0.12113,-0.80459 -0.52498,-2.59005 -0.89744,-3.96768 -0.388511,-1.43701 -0.693511,-3.86028 -0.715481,-5.68457 -0.0211,-1.74889 -0.14012,-4.45884 -0.26458,-6.02208 l -0.2263,-2.8423 -5.059803,-0.32163 c -4.064233,-0.25834 -5.192193,-0.48251 -5.732644,-1.13927 -0.844055,-1.02572 -0.849988,-1.72984 -0.023,-2.73476 0.567101,-0.68916 1.240501,-0.7495 5.291674,-0.47417 l 4.641872,0.31547 -10e-4,-4.69168 c -7.9e-4,-2.58042 -0.22596,-6.61022 -0.50039,-8.9551 -0.27442,-2.34489 -0.5981,-6.0754 -0.719281,-8.29002 -0.12119,-2.21461 -0.45157,-7.5439 -0.7342,-11.84286 -0.28262,-4.29896 -0.55362,-8.77557 -0.60221,-9.948 l -0.0884,-2.13172 -5.644444,-0.38146 c -5.870171,-0.39671 -20.4467487,-0.12086 -22.1368098,0.41891 -0.8139043,0.25996 -0.9701384,0.55973 -0.9701384,1.86144 0,2.42951 -1.3481944,10.85232 -2.5347825,15.83601 -1.1267894,4.73251 -2.83353144,9.52927 -5.2240318,14.68199 -0.7773727,1.67562 -1.4134034,3.57693 -1.4134034,4.22514 0,0.64819 -0.4960337,2.35875 -1.1022964,3.80126 -0.6062637,1.4425 -1.4017031,3.79131 -1.7676438,5.21955 -0.365942,1.42826 -1.3599094,4.32178 -2.2088158,6.43006 -1.4620201,3.63096 -3.3078901,10.93963 -2.9009181,11.48613 0.103822,0.1394 0.657251,-0.27587 1.229843,-0.92285 0.5725907,-0.64697 2.7621065,-1.98116 4.8655913,-2.96489 5.29140189,-2.47458 7.3088596,-3.72718 9.0393277,-5.61233 1.6989742,-1.85085 4.4349223,-3.72714 4.8873299,-3.35168 0.7703047,0.63928 0.06793,4.93419 -0.8069233,4.93419 -0.209738,0 -1.355089,1.01717 -2.5452255,2.2604 -2.5762564,2.69117 -5.59238791,4.47331 -11.6704332,6.8957 -1.1513714,0.45887 -4.7809439,4.48801 -4.7809439,5.30726 0,0.11373 4.4053112,0.26698 9.7895789,0.34052 5.3842688,0.0736 12.5677031,0.18311 15.9631891,0.24344 3.395487,0.0603 10.585897,-0.031 15.978687,-0.20291 z m 5.550364,-75.72625 c 1.46983,-1.45615 1.957401,-2.51267 1.46482,-3.17412 -0.23766,-0.31913 -3.319371,-0.41039 -8.944205,-0.26487 -8.273007,0.21405 -8.676758,0.26879 -11.227443,1.5223 -1.455209,0.71514 -3.161772,1.5044 -3.792362,1.75393 -2.757057,1.09092 -0.784511,1.35656 10.073824,1.35656 h 11.220355 z"
       style="fill:#000000;stroke-width:0.40879822" />
    <path
       style="opacity:0.98999999;fill:#ffff00;fill-opacity:1;fill-rule:nonzero;stroke:none;stroke-width:16.72809219;stroke-linecap:round;stroke-linejoin:round;stroke-miterlimit:10;stroke-dasharray:none;stroke-dashoffset:0;stroke-opacity:1;paint-order:normal"
       d="m 10.598128,233.41841 c 0.268795,-2.0041 0.641699,-3.37312 0.976511,-3.58499 0.29791,-0.18851 1.445805,-0.34536 2.550877,-0.34854 2.487197,-0.007 3.471431,-0.49712 3.471431,-1.72808 0,-1.13312 -0.844651,-1.54161 -3.874254,-1.87366 l -2.173364,-0.23821 v -3.48798 c 0,-2.20891 0.16633,-3.65431 0.453572,-3.94155 0.2676,-0.2676 1.553901,-0.45357 3.137202,-0.45357 2.869567,0 3.590774,-0.35414 3.590774,-1.76319 0,-1.05768 -0.752872,-1.46471 -3.311895,-1.79057 -1.093939,-0.13929 -2.222313,-0.3428 -2.507496,-0.45224 -0.666655,-0.25582 -1.094071,-7.40439 -0.697333,-11.66299 l 0.280117,-3.00677 1.660218,-0.40319 c 0.952703,-0.23136 1.890707,-0.75031 2.201068,-1.21774 0.484918,-0.73032 0.459806,-0.89561 -0.242805,-1.59822 -0.431014,-0.43102 -1.251405,-0.78627 -1.823096,-0.78945 -1.837235,-0.0102 -2.031031,-0.37948 -2.04081,-3.88851 -0.005,-1.7894 0.100753,-3.43115 0.234979,-3.64833 0.134226,-0.21718 0.829323,-0.39487 1.544658,-0.39487 1.48535,0 2.921781,-1.16534 2.56915,-2.08428 -0.247613,-0.64527 -2.046648,-1.69549 -2.904382,-1.69549 -1.359532,0 -1.488482,-0.91099 -1.203772,-8.50423 l 0.27637,-7.37077 h 5.817336 5.817337 v 2.59039 c 0,1.42471 -0.107778,3.62156 -0.239509,4.88189 l -0.239509,2.2915 -2.122843,0.50427 c -1.74643,0.41486 -2.144742,0.65876 -2.246352,1.37553 -0.167802,1.18369 0.565409,1.96357 1.846077,1.96357 0.584674,0 1.506519,0.16861 2.048548,0.37469 0.959713,0.36488 0.982615,0.45144 0.875051,3.30729 l -0.110453,2.9326 -1.273242,0.12178 c -0.700286,0.067 -1.763496,-0.0813 -2.362695,-0.32948 -0.853855,-0.35367 -1.211982,-0.34957 -1.656072,0.019 -0.597945,0.49625 -0.75125,2.14799 -0.269658,2.90539 0.401005,0.63065 2.177394,1.251 3.601897,1.25785 2.059717,0.01 2.189617,0.27253 2.069282,4.18354 l -0.109512,3.55919 -1.511904,0.31518 c -3.6268,0.75608 -3.776821,0.82341 -3.910153,1.75512 -0.174614,1.22018 0.833422,1.89845 2.821469,1.89845 2.248978,0 2.940594,0.78179 2.638889,2.98297 -0.128997,0.94115 -0.378772,1.85542 -0.555051,2.03169 -0.176276,0.17628 -1.322748,0.41881 -2.547711,0.53896 -2.436968,0.23903 -3.172145,0.61632 -3.172145,1.62792 0,1.00739 0.856779,1.5147 2.983503,1.76658 2.923964,0.3463 3.148111,0.63515 3.148111,4.0568 0,1.6155 -0.174196,3.11147 -0.387104,3.32438 -0.212905,0.2129 -1.160233,0.47424 -2.105169,0.58075 -0.999119,0.11261 -1.986404,0.49016 -2.35931,0.90221 -0.60384,0.66724 -0.601036,0.753 0.04807,1.47025 0.379124,0.41893 1.337419,0.86532 2.129547,0.99199 2.377676,0.3802 2.6776,0.7988 2.660783,3.71365 -0.01643,2.84994 -0.13988,3.01968 -2.466531,3.39172 -1.779003,0.28448 -2.517971,0.79052 -2.517971,1.72429 0,0.93868 0.835649,1.51744 2.517613,1.74367 2.944695,0.39607 3.15203,0.49318 3.15203,1.47633 v 0.93774 h -7.30761 -7.307609 z"
       id="path939"
       inkscape:connector-curvature="0" />
  </g>
</svg>
