<?xml version="1.0" encoding="UTF-8" standalone="no"?>
<!-- Created with Inkscape (http://www.inkscape.org/) -->

<svg
   xmlns:dc="http://purl.org/dc/elements/1.1/"
   xmlns:cc="http://creativecommons.org/ns#"
   xmlns:rdf="http://www.w3.org/1999/02/22-rdf-syntax-ns#"
   xmlns:svg="http://www.w3.org/2000/svg"
   xmlns="http://www.w3.org/2000/svg"
   xmlns:sodipodi="http://sodipodi.sourceforge.net/DTD/sodipodi-0.dtd"
   xmlns:inkscape="http://www.inkscape.org/namespaces/inkscape"
   width="97.208267mm"
   height="149.3015mm"
   viewBox="0 0 97.208267 149.3015"
   version="1.1"
   id="svg8"
   inkscape:version="0.92.4 5da689c313, 2019-01-14"
   sodipodi:docname="Metronomek.svg"
   inkscape:export-filename="../Images/bg-outer.png"
   inkscape:export-xdpi="367.38025"
   inkscape:export-ydpi="367.38025">
  <defs
     id="defs2" />
  <sodipodi:namedview
     id="base"
     pagecolor="#ffffff"
     bordercolor="#666666"
     borderopacity="1.0"
     inkscape:pageopacity="0.0"
     inkscape:pageshadow="2"
     inkscape:zoom="0.7"
     inkscape:cx="73.722856"
     inkscape:cy="211.89066"
     inkscape:document-units="mm"
     inkscape:current-layer="layer1"
     showgrid="false"
     fit-margin-top="0"
     fit-margin-left="0"
     fit-margin-right="0"
     fit-margin-bottom="0"
     inkscape:window-width="1920"
     inkscape:window-height="1043"
     inkscape:window-x="0"
     inkscape:window-y="0"
     inkscape:window-maximized="1"
     showguides="true"
     inkscape:guide-bbox="true"
     objecttolerance="1"
     guidetolerance="1">
    <sodipodi:guide
       position="39.5605,98.894754"
       orientation="1,0"
       id="guide822"
       inkscape:locked="false" />
    <sodipodi:guide
       position="-32.733882,42.439129"
       orientation="0,1"
       id="guide824"
       inkscape:locked="false" />
    <sodipodi:guide
       position="-48.885926,133.47958"
       orientation="0,1"
       id="guide826"
       inkscape:locked="false" />
  </sodipodi:namedview>
  <metadata
     id="metadata5">
    <rdf:RDF>
      <cc:Work
         rdf:about="">
        <dc:format>image/svg+xml</dc:format>
        <dc:type
           rdf:resource="http://purl.org/dc/dcmitype/StillImage" />
        <dc:title />
      </cc:Work>
    </rdf:RDF>
  </metadata>
  <g
     inkscape:label="Layer 1"
     inkscape:groupmode="layer"
     id="layer1"
     transform="translate(55.487575,-155.46106)">
    <path
       style="opacity:0.98999999;fill:#bdbdbd;fill-opacity:0.99215686;fill-rule:nonzero;stroke:none;stroke-width:11.82854748;stroke-linecap:round;stroke-linejoin:round;stroke-miterlimit:10;stroke-dasharray:none;stroke-dashoffset:0;stroke-opacity:1;paint-order:normal"
       d="m -17.44077,164.15191 c -1.34816,-0.0845 -4.655335,-1.12982 -4.750675,-1.22584 -0.1744,-0.17565 6.279365,-3.03243 8.270975,-3.76671 1.27109,-0.46864 7.3586,-0.87014 13.37921,-0.88243 5.8962,-0.012 6.91635,2.66889 3.60162,4.8528 l -1.12373,1.26953 -8.46309,-0.0469 c -4.6547,-0.0258 -9.56614,-0.11599 -10.91431,-0.20045 z"
       id="path4599"
       inkscape:connector-curvature="0"
       sodipodi:nodetypes="scssscss" />
    <path
       style="opacity:0.98999999;fill:#bdbdbd;fill-opacity:1;fill-rule:nonzero;stroke:none;stroke-width:8.3640461;stroke-linecap:round;stroke-linejoin:round;stroke-miterlimit:10;stroke-dasharray:none;stroke-dashoffset:0;stroke-opacity:1;paint-order:normal"
       d="m 26.99813,293.82696 c -0.0693,-0.0693 -0.125,-0.30317 -0.12379,-0.51972 0.001,-0.21655 -0.37951,-1.15913 -0.84605,-2.09462 -0.99233,-1.98978 -1.28517,-3.05876 -1.78614,-6.52009 -0.27031,-1.86768 -0.52232,-2.8873 -0.94047,-3.80514 -0.70902,-1.55627 -1.22626,-4.10091 -1.6115,-7.92788 -0.7492,-7.44269 -3.03251,-16.11761 -7.61511,-26.46057 -0.78313,-1.76753 -1.91215,-4.19171 -2.50894,-5.38706 C 8.71914,235.40942 7.44725,230.26849 7.03076,222.78004 6.80891,218.79135 6.56905,216.06089 6.1698,212.97965 6.01684,211.79915 5.80793,208.43989 5.70556,205.51462 5.6032,202.58936 5.43598,199.5156 5.33396,198.68405 4.76498,194.04599 3.25339,169.58111 3.24968,165.15059 l -0.001,-1.25429 1.7281,-1.82598 c 0.95046,-1.00429 2.51526,-1.9594 2.83057,-2.12245 0.52656,-0.27229 0.59227,-0.27053 0.80588,0.0216 0.12791,0.17494 0.37225,1.09916 0.54297,2.05383 0.17072,0.95466 0.68855,3.77683 1.15074,6.27147 1.04688,5.65048 1.192,7.22412 2.25818,16.78214 1.44611,12.9639 1.54253,13.42909 4.61366,22.2584 6.24266,17.94725 9.4086,27.2787 10.81217,36.72881 0.79684,5.36499 2.01716,12.55633 2.70914,15.4741 0.5941,2.50502 2.11812,8.05209 3.07994,10.12976 0.38495,0.83155 1.13625,2.20694 1.66956,3.05642 1.33098,2.12009 2.72476,4.67162 3.24234,5.93564 0.51999,1.26989 0.48712,1.3587 -1.37518,3.7153 -0.67676,0.85638 -1.8228,2.55727 -2.54677,3.77976 -1.57298,2.65614 -5.5725,6.64571 -6.45249,7.31692 -0.62479,0.47655 -1.07624,0.59801 -1.31931,0.35494 z"
       id="path4561"
       inkscape:connector-curvature="0"
       sodipodi:nodetypes="ccsccsssssssccsccscssssccccsscc" />
    <path
       style="opacity:0.98999999;fill:#7c7c7c;fill-opacity:1;fill-rule:nonzero;stroke:none;stroke-width:8.3640461;stroke-linecap:round;stroke-linejoin:round;stroke-miterlimit:10;stroke-dasharray:none;stroke-dashoffset:0;stroke-opacity:1;paint-order:normal"
       d="m -33.8827,260.13131 c -1.24627,1.51532 -15.16212,0.63601 -15.16212,0.3873 0,-0.29526 3.02547,-5.57412 4.20503,-6.73305 1.05485,-1.03639 2.5731,-1.16434 4.90948,-2.18395 4.49989,-1.9638 6.84495,-3.39007 9.16592,-5.57476 1.27956,-1.20442 3.43961,-2.65092 7.74851,-5.18885 1.81901,-1.07139 3.48418,-2.05564 3.70039,-2.18722 0.2162,-0.13157 0.47558,-0.52314 0.5764,-0.87013 l 0.18331,-0.63091 2.16392,0.0537 c 8.37339,0.20793 22.17118,1.45081 23.4682,1.60061 l 1.53612,0.1163 0.1125,0.96676 c 0.0619,0.53172 5.07903,5.86275 5.18763,8.25345 0.22939,5.04942 2.91609,12.31725 3.66209,15.5449 0.3017,1.30533 -4.47386,-1.35915 -4.40619,-0.92828 l -0.1367,0.18762 -4.54088,-0.42041 c -8.94977,0.46008 -51.47388,12.7737 -43.17542,-1.05676 z"
       id="path4565"
       inkscape:connector-curvature="0"
       sodipodi:nodetypes="cssssscccssccsccccsc" />
    <path
       style="opacity:0.98999999;fill:#bdbdbd;fill-opacity:1;fill-rule:nonzero;stroke:none;stroke-width:8.3640461;stroke-linecap:round;stroke-linejoin:round;stroke-miterlimit:10;stroke-dasharray:none;stroke-dashoffset:0;stroke-opacity:1;paint-order:normal"
       d="m 9.86805,294.3436 c -2.0269,-0.0754 -6.19409,-0.22644 -9.26042,-0.33556 -3.06633,-0.10913 -13.22916,-0.24979 -22.58407,-0.31257 -17.82456,-0.11963 -21.74932,-0.2549 -24.59453,-0.84769 -2.22015,-0.46256 -5.820396,-0.98743 -6.156096,-1.26604 -0.32462,-0.26941 -0.004,-5.33519 0.265956,-15.95402 0.31365,-12.33963 -0.57085,5.03309 0.47082,-0.98274 0.25198,-1.45521 -0.0097,-4.13409 0.153544,-5.38141 0.39858,-3.0461 1.196806,-4.64048 1.778286,-6.5916 l 0.49301,-1.65426 28.89465,0.0479 31.38929,2.69374 6.84911,1.1015 c 6.36803,1.02413 0.0874,1.79279 2.12758,9.16055 0.27369,3.02236 2.21072,5.53328 3.06655,8.26012 0.37517,1.19535 0.0866,4.3798 0.33864,5.78304 0.25209,1.40323 1.34026,3.55419 1.60149,4.45325 0.26124,0.89905 -0.83725,1.34818 -0.80778,1.48806 0.0381,0.18082 -0.27413,0.28963 -1.08035,0.37647 -1.46038,0.15731 -8.22249,0.13711 -12.94568,-0.0387 z"
       id="path4559"
       inkscape:connector-curvature="0"
       sodipodi:nodetypes="cssscsssscccscsscccsc" />
    <path
       style="opacity:0.98999999;fill:#7c7c7c;fill-opacity:1;fill-rule:nonzero;stroke:none;stroke-width:8.3640461;stroke-linecap:round;stroke-linejoin:round;stroke-miterlimit:10;stroke-dasharray:none;stroke-dashoffset:0;stroke-opacity:1;paint-order:normal"
       d="m -48.9579,254.11104 c 0.072,-0.54297 -0.20096,-4.51399 0.2018,-6.07588 0.70414,-2.7306 5.38618,-27.90927 7.08595,-32.63575 0.42867,-1.19198 0.70237,-2.52186 1.07019,-3.76374 0.36783,-1.24187 1.07837,-2.38413 1.57898,-3.69328 0.50061,-1.30915 1.38471,-3.97165 1.50269,-4.64624 0.30045,-1.71785 0.55834,-2.08166 1.8535,-5.00629 1.54415,-3.48691 2.65539,-7.10828 3.55531,-10.18506 1.3274,-4.53828 3.08318,-14.41743 3.33125,-18.48934 0.14337,-2.35321 1.05072,-2.76052 2.70621,-3.00125 2.1072,-0.30642 19.52344,-1.33213 23.2406,-0.31652 l 4.8097,0.83207 0.63408,2.52563 c 0.0726,0.46774 -1.04957,5.73384 -0.62117,12.85397 0.42839,7.12012 1.41799,14.38199 1.62163,16.25297 0.23185,2.13007 -0.52588,5.17754 0.0134,8.67639 l 1.86234,30.43699 -3.91901,-1.39494 c -5.54333,-1.9731 -13.36265,-0.55938 -17.38942,0.0431 -1.89252,0.28314 -2.93353,0.88638 -7.11577,3.36997 -3.72813,2.21393 -5.61066,3.92675 -7.04917,5.27778 -1.69235,1.58945 -3.54951,2.70585 -7.7149,4.78904 -3.89334,1.94714 -9.34332,5.21858 -10.51958,6.2958 -0.43944,0.40244 3.19661,-2.89542 3.12892,-2.89542 -0.0677,0 -3.27136,1.69391 -3.19935,1.15094 z"
       id="path4563"
       inkscape:connector-curvature="0"
       sodipodi:nodetypes="ccsscccssssccssscssscssscc" />
    <path
       inkscape:connector-curvature="0"
       id="path866-6-3"
       d="m -43.23728,303.58477 c -0.61687,-0.88174 -0.76705,-1.67006 -0.76705,-4.02658 0,-1.61159 -0.0479,-2.93018 -0.1064,-2.93018 -0.36934,0 -9.96248,-2.38618 -10.48017,-2.60681 -0.91404,-0.38955 -1.09859,-1.41389 -0.69282,-3.84527 0.19581,-1.17323 0.51234,-8.24868 0.70341,-15.72325 0.19107,-7.47457 0.51157,-14.4428 0.71223,-15.48497 0.20065,-1.04217 0.50725,-2.96072 0.68133,-4.26343 0.96065,-7.18894 1.4541,-10.17455 1.93939,-11.73419 0.29714,-0.95494 0.54025,-2.15281 0.54025,-2.66192 0,-0.50913 0.47996,-2.80757 1.06657,-5.10765 0.58662,-2.30009 1.55303,-6.40963 2.14759,-9.13234 0.62519,-2.86295 1.66834,-6.25799 2.47389,-8.05146 0.76608,-1.70562 1.69282,-4.40513 2.05941,-5.99893 0.3666,-1.59379 1.15465,-3.96301 1.75121,-5.26492 0.59657,-1.30193 1.08467,-2.83028 1.08467,-3.39634 0,-1.1713 1.3948,-5.05912 2.82222,-7.86658 0.52988,-1.04218 1.36276,-2.96072 1.85084,-4.26343 1.99056,-5.3129 4.49619,-18.45856 4.50182,-23.61849 0.002,-2.24462 0.12249,-2.59385 1.52945,-4.44911 0.83974,-1.10729 1.80148,-2.01328 2.1372,-2.01328 0.33573,0 0.94527,-0.24064 1.35454,-0.53477 0.40927,-0.29413 1.84705,-0.8413 3.19506,-1.21594 1.34802,-0.37465 3.31654,-1.19523 4.37452,-1.82352 2.75285,-1.63479 6.4702,-2.11035 16.49642,-2.11035 8.80843,0 8.82677,0.003 10.64137,1.23497 0.99976,0.67924 1.97311,1.69181 2.163,2.25015 0.1899,0.55835 0.70615,3.14689 1.14723,5.75232 0.44108,2.60543 1.0126,5.69641 1.27005,6.86886 0.25744,1.17244 0.78095,5.00953 1.16336,8.52687 1.32368,12.17512 1.48628,13.51416 1.99486,16.42805 0.28099,1.60994 1.84251,6.72607 3.47003,11.36914 2.99997,8.55849 7.18628,22.20291 8.4038,27.39056 0.3669,1.56325 0.88107,4.44107 1.14261,6.39514 0.26155,1.95408 0.80893,5.4714 1.21642,7.81629 2.16051,12.43277 3.4075,16.32083 6.93899,21.63542 1.0527,1.58423 1.914,3.06854 1.914,3.29847 0,0.22992 0.47625,1.30088 1.05833,2.37988 0.58209,1.079 1.05834,2.33887 1.05834,2.7997 0,0.46082 -0.58563,1.54799 -1.3014,2.41592 -0.71577,0.86794 -1.74734,2.21758 -2.29239,2.9992 -9.18134,13.16654 -8.40786,12.55344 -15.83733,12.55344 h -5.34345 l 0.23524,2.10648 c 0.34461,3.08578 -0.47838,4.05182 -3.45184,4.05182 -2.61085,0 -3.40289,-0.77854 -3.41147,-3.35332 -0.003,-0.89137 -0.13674,-1.89876 -0.29727,-2.23861 -0.4548,-0.96289 -10.45933,-1.48877 -28.57617,-1.50206 l -16.00246,-0.0121 0.23711,1.69717 c 0.30223,2.16329 -0.30761,3.45942 -2.40381,5.10902 -2.16997,1.70762 -5.3716,1.78165 -6.51273,0.15057 z m 67.08082,-9.63702 c 0.12768,-0.17144 0.099,-0.5445 -0.0638,-0.82902 -0.40345,-0.70534 -1.46188,-5.23755 -1.46188,-6.25974 0,-0.45501 -0.29602,-1.69398 -0.65783,-2.75329 -1.24425,-3.64289 -1.776,-6.19725 -2.02208,-9.71348 -1.24888,-9.11797 0.96178,-7.59642 -2.8098,-8.38235 l -36.51724,-1.87089 h -30.77099 c -0.15327,0.98429 1.48053,-3.17948 -1.69044,12.25926 -0.18961,7.82561 -0.22023,14.38444 -0.068,14.5752 0.1522,0.19075 2.18182,0.79497 4.51026,1.34269 3.96867,0.93357 5.56885,0.99926 25.57639,1.04988 11.73857,0.0297 23.4066,0.20678 25.92896,0.3935 6.10929,0.45226 19.75446,0.58038 20.04648,0.18824 z m 5.2229,-0.99414 c 1.20027,-1.06853 4.40125,-5.54308 5.56955,-7.78547 0.50109,-0.96179 1.58576,-2.5239 2.41039,-3.47135 0.82462,-0.94743 1.49931,-2.01501 1.49931,-2.37239 0,-0.75181 -2.06679,-4.71387 -3.92563,-7.5255 -1.77619,-2.68659 -3.96942,-8.74991 -4.89833,-13.54177 -1.23832,-6.38787 -2.0833,-11.36122 -2.49504,-14.68515 -0.97873,-7.90119 -4.83007,-21.15446 -11.76983,-40.5026 -0.46726,-1.30271 -1.09019,-3.75418 -1.3843,-5.44771 -0.53201,-3.06351 -0.6923,-4.37999 -2.0187,-16.58002 -0.3824,-3.51733 -0.90712,-7.35441 -1.16604,-8.52686 -0.25891,-1.17244 -0.849,-4.32613 -1.31131,-7.0082 -0.80719,-4.68288 -0.87377,-4.86531 -1.67738,-4.59517 -0.46026,0.15472 -1.62621,1.17669 -2.591,2.27106 l -1.75417,1.98974 0.19679,5.44771 c 0.24451,6.76876 1.54565,25.94113 1.97715,29.13346 0.17609,1.3027 0.33528,4.50027 0.35376,7.10571 0.0185,2.60543 0.26148,6.01617 0.54,7.57944 0.27853,1.56325 0.60233,5.29376 0.71956,8.29 0.19756,5.04934 0.58738,7.53203 2.08264,13.264 0.23788,0.9119 1.21229,3.22438 2.16536,5.13884 6.27089,12.59656 9.96757,23.83154 10.5399,32.03287 0.25284,3.62304 0.89078,6.44829 1.76826,7.83118 0.24799,0.39081 0.55985,1.77643 0.69303,3.07915 0.34296,3.35477 0.91941,5.49627 1.85595,6.89478 0.44574,0.6656 0.81044,1.57159 0.81044,2.01329 0,1.02662 0.63527,1.01643 1.80964,-0.029 z m -46.29237,-54.057 c -0.84405,-1.02572 4.56e-4,-2.76927 0.827446,-3.77419 0.5671,-0.68916 10.973384,-0.0881 15.024554,0.18728 l 6.37912,0.58274 -1.73825,-27.18395 c -7.9e-4,-2.58042 -0.22596,-6.61022 -0.50039,-8.9551 -0.27442,-2.34489 -0.59809,-6.0754 -0.71928,-8.29002 -0.12119,-2.21461 -0.45157,-7.5439 -0.7342,-11.84286 -0.28262,-4.29896 -0.55362,-8.77557 -0.60221,-9.948 l -0.0884,-2.13172 -5.64444,-0.38146 c -5.87017,-0.39671 -20.44675,-0.12086 -22.13681,0.41891 -0.8139,0.25996 -0.97014,0.55973 -0.97014,1.86144 0,2.42951 -1.34819,10.85232 -2.53478,15.83601 -1.12679,4.73251 -2.83353,9.52927 -5.22404,14.68199 -0.77737,1.67562 -1.4134,3.57693 -1.4134,4.22514 0,0.64819 -0.49603,2.35875 -1.1023,3.80126 -0.60626,1.4425 -1.4017,3.79131 -1.76764,5.21955 -0.36594,1.42826 -1.35991,4.32178 -2.20882,6.43006 -1.46202,3.63096 -5.84695,33.4319 -5.43998,33.9784 0.10382,0.1394 3.19631,-0.54314 3.76891,-1.19012 0.57259,-0.64697 2.7621,-1.98116 4.86559,-2.96489 5.2914,-2.47458 7.30886,-3.72718 9.03933,-5.61233 1.69898,-1.85085 13.128386,-8.97156 13.580786,-8.5961 m -0.476191,3.70577 c -0.20974,0 -10.379275,7.49001 -11.569405,8.73324 -2.57626,2.69117 -5.5924,4.47331 -11.67045,6.8957 -1.15137,0.45887 -7.58727,4.22074 -7.58727,5.03999 0,0.11373 7.21164,0.53425 12.59591,0.60779 5.38427,0.0736 12.56771,0.18311 15.9632,0.24344 3.39549,0.0603 10.5859,-0.031 15.97868,-0.20291 l -4e-4,0 20.09495,1.69191 -10.51011,-25.69242 c 0.67021,0.30686 4.85864,5.45904 -0.23291,3.842 l -6.93069,-0.45526 c -4.06423,-0.25834 -15.77552,-0.10453 -16.31597,-0.76129 M 2.21916,162.32042 c 1.46983,-1.45615 1.9574,-2.51267 1.46482,-3.17412 -0.23766,-0.31913 -3.31937,-0.41039 -8.9442,-0.26487 -8.273,0.21405 -8.67675,0.26879 -11.22744,1.5223 -1.45521,0.71514 -3.16177,1.5044 -3.79236,1.75393 -2.75706,1.09092 -0.78451,1.35656 10.07382,1.35656 H 1.01415 Z"
       style="fill:#000000;stroke-width:0.40879822"
       sodipodi:nodetypes="cssccscscsccccsscsccssccsccscccssccsscsccsccsccccscccccsccccccccsccccscscccccccssccscccscccsccsccccccccccccscsscsccccsccccccsccccccccccccccscc" />
  </g>
</svg>
