<?xml version="1.0" encoding="UTF-8" standalone="no"?>
<!-- Created with Inkscape (http://www.inkscape.org/) -->

<svg
   xmlns:dc="http://purl.org/dc/elements/1.1/"
   xmlns:cc="http://creativecommons.org/ns#"
   xmlns:rdf="http://www.w3.org/1999/02/22-rdf-syntax-ns#"
   xmlns:svg="http://www.w3.org/2000/svg"
   xmlns="http://www.w3.org/2000/svg"
   xmlns:sodipodi="http://sodipodi.sourceforge.net/DTD/sodipodi-0.dtd"
   xmlns:inkscape="http://www.inkscape.org/namespaces/inkscape"
   width="98.236305mm"
   height="151.01558mm"
   viewBox="0 0 98.236305 151.01558"
   version="1.1"
   id="svg8"
   inkscape:version="0.92.4 5da689c313, 2019-01-14"
   sodipodi:docname="Metronomek.svg"
   inkscape:export-filename="../Images/bg.png"
   inkscape:export-xdpi="496.51038"
   inkscape:export-ydpi="496.51038">
  <defs
     id="defs2" />
  <sodipodi:namedview
     id="base"
     pagecolor="#ffffff"
     bordercolor="#666666"
     borderopacity="1.0"
     inkscape:pageopacity="0.0"
     inkscape:pageshadow="2"
     inkscape:zoom="0.98994949"
     inkscape:cx="136.60655"
     inkscape:cy="301.25691"
     inkscape:document-units="mm"
     inkscape:current-layer="layer1"
     showgrid="false"
     fit-margin-top="0"
     fit-margin-left="0"
     fit-margin-right="0"
     fit-margin-bottom="0"
     inkscape:window-width="1920"
     inkscape:window-height="1043"
     inkscape:window-x="0"
     inkscape:window-y="0"
     inkscape:window-maximized="1"
     showguides="true"
     inkscape:guide-bbox="true"
     objecttolerance="1"
     guidetolerance="1">
    <sodipodi:guide
       position="39.6875,99.218751"
       orientation="1,0"
       id="guide822"
       inkscape:locked="false" />
    <sodipodi:guide
       position="-32.606883,42.763125"
       orientation="0,1"
       id="guide824"
       inkscape:locked="false" />
    <sodipodi:guide
       position="-48.758927,133.80358"
       orientation="0,1"
       id="guide826"
       inkscape:locked="false" />
  </sodipodi:namedview>
  <metadata
     id="metadata5">
    <rdf:RDF>
      <cc:Work
         rdf:about="">
        <dc:format>image/svg+xml</dc:format>
        <dc:type
           rdf:resource="http://purl.org/dc/dcmitype/StillImage" />
        <dc:title />
      </cc:Work>
    </rdf:RDF>
  </metadata>
  <g
     inkscape:label="Layer 1"
     inkscape:groupmode="layer"
     id="layer1"
     transform="translate(55.614574,-154.07097)">
    <g
       id="g851"
       transform="translate(169.26969,-24.460804)">
      <path
         sodipodi:nodetypes="scssscss"
         inkscape:connector-curvature="0"
         id="path4599"
         d="m -186.71046,188.61271 c -1.34816,-0.0845 -3.94663,-0.7046 -4.04197,-0.80062 -0.1744,-0.17565 5.57066,-3.45765 7.56227,-4.19193 1.27109,-0.46864 7.3586,-0.87014 13.37921,-0.88243 5.8962,-0.012 6.91635,2.66889 3.60162,4.8528 l -1.12373,1.26953 -8.46309,-0.0469 c -4.6547,-0.0258 -9.56614,-0.11599 -10.91431,-0.20045 z"
         style="opacity:0.98999999;fill:#bdbdbd;fill-opacity:0.99215686;fill-rule:nonzero;stroke:none;stroke-width:11.82854748;stroke-linecap:round;stroke-linejoin:round;stroke-miterlimit:10;stroke-dasharray:none;stroke-dashoffset:0;stroke-opacity:1;paint-order:normal" />
      <path
         sodipodi:nodetypes="ccsccsssssssccsccscssssccccsscc"
         inkscape:connector-curvature="0"
         id="path4561"
         d="m -142.27156,318.28776 c -0.0693,-0.0693 -0.125,-0.30317 -0.12379,-0.51972 0.001,-0.21655 -0.37951,-1.15913 -0.84605,-2.09462 -0.99233,-1.98978 -1.28517,-3.05876 -1.78614,-6.52009 -0.27031,-1.86768 -0.52232,-2.8873 -0.94047,-3.80514 -0.70902,-1.55627 -1.22626,-4.10091 -1.6115,-7.92788 -0.7492,-7.44269 -3.03251,-16.11761 -7.61511,-26.46057 -0.78313,-1.76753 -1.91215,-4.19171 -2.50894,-5.38706 -2.84699,-5.70246 -4.11888,-10.84339 -4.53537,-18.33184 -0.22185,-3.98869 -0.46171,-6.71915 -0.86096,-9.80039 -0.15296,-1.1805 -0.36187,-4.53976 -0.46424,-7.46503 -0.10236,-2.92526 -0.26958,-5.99902 -0.3716,-6.83057 -0.56898,-4.63806 -2.08057,-29.10294 -2.08428,-33.53346 l -10e-4,-1.25429 1.7281,-1.82598 c 0.95046,-1.00429 2.51526,-1.9594 2.83057,-2.12245 0.52656,-0.27229 0.59227,-0.27053 0.80588,0.0216 0.12791,0.17494 0.37225,1.09916 0.54297,2.05383 0.17072,0.95466 0.68855,3.77683 1.15074,6.27147 1.04688,5.65048 1.192,7.22412 2.25818,16.78214 1.44611,12.9639 1.54253,13.42909 4.61366,22.2584 6.24266,17.94725 9.4086,27.2787 10.81217,36.72881 0.79684,5.36499 2.01716,12.55633 2.70914,15.4741 0.5941,2.50502 2.11812,8.05209 3.07994,10.12976 0.38495,0.83155 1.13625,2.20694 1.66956,3.05642 1.33098,2.12009 2.72476,4.67162 3.24234,5.93564 0.51999,1.26989 0.48712,1.3587 -1.37518,3.7153 -0.67676,0.85638 -1.8228,2.55727 -2.54677,3.77976 -1.57298,2.65614 -5.5725,6.64571 -6.45249,7.31692 -0.62479,0.47655 -1.07624,0.59801 -1.31931,0.35494 z"
         style="opacity:0.98999999;fill:#bdbdbd;fill-opacity:1;fill-rule:nonzero;stroke:none;stroke-width:8.3640461;stroke-linecap:round;stroke-linejoin:round;stroke-miterlimit:10;stroke-dasharray:none;stroke-dashoffset:0;stroke-opacity:1;paint-order:normal" />
      <path
         sodipodi:nodetypes="cssssscccssccsccccsc"
         inkscape:connector-curvature="0"
         id="path4565"
         d="m -203.15239,284.59211 c -1.24627,1.51532 -15.16212,0.63601 -15.16212,0.3873 0,-0.29526 3.02547,-5.57412 4.20503,-6.73305 1.05485,-1.03639 2.5731,-1.16434 4.90948,-2.18395 4.49989,-1.9638 6.84495,-3.39007 9.16592,-5.57476 1.27956,-1.20442 3.43961,-2.65092 7.74851,-5.18885 1.81901,-1.07139 3.48418,-2.05564 3.70039,-2.18722 0.2162,-0.13157 0.47558,-0.52314 0.5764,-0.87013 l 0.18331,-0.63091 2.16392,0.0537 c 8.37339,0.20793 22.17118,1.45081 23.4682,1.60061 l 1.53612,0.1163 0.1125,0.96676 c 0.0619,0.53172 5.07903,5.86275 5.18763,8.25345 0.22939,5.04942 2.91609,12.31725 3.66209,15.5449 0.3017,1.30533 -4.47386,-1.35915 -4.40619,-0.92828 l -0.1367,0.18762 -4.54088,-0.42041 c -8.94977,0.46008 -51.47388,12.7737 -43.17542,-1.05676 z"
         style="opacity:0.98999999;fill:#7c7c7c;fill-opacity:1;fill-rule:nonzero;stroke:none;stroke-width:8.3640461;stroke-linecap:round;stroke-linejoin:round;stroke-miterlimit:10;stroke-dasharray:none;stroke-dashoffset:0;stroke-opacity:1;paint-order:normal" />
      <path
         sodipodi:nodetypes="cssscsssscccscsscccsc"
         inkscape:connector-curvature="0"
         id="path4559"
         d="m -159.40164,318.8044 c -2.0269,-0.0754 -6.19409,-0.22644 -9.26042,-0.33556 -3.06633,-0.10913 -13.22916,-0.24979 -22.58407,-0.31257 -17.82456,-0.11963 -21.74932,-0.2549 -24.59453,-0.84769 -2.22015,-0.46256 -4.95177,-1.2547 -5.28747,-1.53331 -0.32462,-0.26941 -0.87258,-5.06792 -0.60267,-15.68675 0.31365,-12.33963 -0.57085,5.03309 0.47082,-0.98274 0.25198,-1.45521 0.59168,-3.66637 0.7549,-4.91369 0.39858,-3.0461 0.59545,-5.1082 1.17693,-7.05932 l 0.49301,-1.65426 28.89465,0.0479 31.38929,2.69374 6.84911,1.1015 c 6.36803,1.02413 0.0874,1.79279 2.12758,9.16055 0.27369,3.02236 2.21072,5.53328 3.06655,8.26012 0.37517,1.19535 0.0866,4.3798 0.33864,5.78304 0.25209,1.40323 1.34026,3.55419 1.60149,4.45325 0.26124,0.89905 -0.83725,1.34818 -0.80778,1.48806 0.0381,0.18082 -0.27413,0.28963 -1.08035,0.37647 -1.46038,0.15731 -8.22249,0.13711 -12.94568,-0.0387 z"
         style="opacity:0.98999999;fill:#bdbdbd;fill-opacity:1;fill-rule:nonzero;stroke:none;stroke-width:8.3640461;stroke-linecap:round;stroke-linejoin:round;stroke-miterlimit:10;stroke-dasharray:none;stroke-dashoffset:0;stroke-opacity:1;paint-order:normal" />
      <path
         sodipodi:nodetypes="ccsscccssssccssscssscssscc"
         inkscape:connector-curvature="0"
         id="path4563"
         d="m -218.22759,278.57184 c 0.072,-0.54297 -0.20096,-4.51399 0.2018,-6.07588 0.70414,-2.7306 5.38618,-27.90927 7.08595,-32.63575 0.42867,-1.19198 0.70237,-2.52186 1.07019,-3.76374 0.36783,-1.24187 1.07837,-2.38413 1.57898,-3.69328 0.50061,-1.30915 1.38471,-3.97165 1.50269,-4.64624 0.30045,-1.71785 0.55834,-2.08166 1.8535,-5.00629 1.54415,-3.48691 2.65539,-7.10828 3.55531,-10.18506 1.3274,-4.53828 3.08318,-14.41743 3.33125,-18.48934 0.14337,-2.35321 1.05072,-2.76052 2.70621,-3.00125 2.1072,-0.30642 19.52344,-1.33213 23.2406,-0.31652 l 4.8097,0.83207 0.63408,2.52563 c 0.0726,0.46774 -1.04957,5.73384 -0.62117,12.85397 0.42839,7.12012 1.41799,14.38199 1.62163,16.25297 0.23185,2.13007 -0.52588,5.17754 0.0134,8.67639 l 1.86234,30.43699 -3.91901,-1.39494 c -5.54333,-1.9731 -13.36265,-0.55938 -17.38942,0.0431 -1.89252,0.28314 -2.93353,0.88638 -7.11577,3.36997 -3.72813,2.21393 -5.61066,3.92675 -7.04917,5.27778 -1.69235,1.58945 -3.54951,2.70585 -7.7149,4.78904 -3.89334,1.94714 -9.34332,5.21858 -10.51958,6.2958 -0.43944,0.40244 3.19661,-2.89542 3.12892,-2.89542 -0.0677,0 -3.27136,1.69391 -3.19935,1.15094 z"
         style="opacity:0.98999999;fill:#7c7c7c;fill-opacity:1;fill-rule:nonzero;stroke:none;stroke-width:8.3640461;stroke-linecap:round;stroke-linejoin:round;stroke-miterlimit:10;stroke-dasharray:none;stroke-dashoffset:0;stroke-opacity:1;paint-order:normal" />
      <path
         sodipodi:nodetypes="cssccscscsccccsscsccssccsccscccssccsscsccsccsccccscccccsccccccccsccccscscccccccssccscccscccsccscccccccccccccccccscsscsccccscccsccscccccccccscc"
         style="fill:#000000;stroke-width:0.40879822"
         d="m -212.50697,328.04557 c -0.61687,-0.88174 -0.76705,-1.67006 -0.76705,-4.02658 0,-1.61159 -0.0479,-2.93018 -0.1064,-2.93018 -0.36934,0 -9.96248,-2.38618 -10.48017,-2.60681 -0.91404,-0.38955 -1.09859,-1.41389 -0.69282,-3.84527 0.19581,-1.17323 0.51234,-8.24868 0.70341,-15.72325 0.19107,-7.47457 0.51157,-14.4428 0.71223,-15.48497 0.20065,-1.04217 0.50725,-2.96072 0.68133,-4.26343 0.96065,-7.18894 1.4541,-10.17455 1.93939,-11.73419 0.29714,-0.95494 0.54025,-2.15281 0.54025,-2.66192 0,-0.50913 0.47996,-2.80757 1.06657,-5.10765 0.58662,-2.30009 1.55303,-6.40963 2.14759,-9.13234 0.62519,-2.86295 1.66834,-6.25799 2.47389,-8.05146 0.76608,-1.70562 1.69282,-4.40513 2.05941,-5.99893 0.3666,-1.59379 1.15465,-3.96301 1.75121,-5.26492 0.59657,-1.30193 1.08467,-2.83028 1.08467,-3.39634 0,-1.1713 1.3948,-5.05912 2.82222,-7.86658 0.52988,-1.04218 1.36276,-2.96072 1.85084,-4.26343 1.99056,-5.3129 4.49619,-18.45856 4.50182,-23.61849 0.002,-2.24462 0.12249,-2.59385 1.52945,-4.44911 0.83974,-1.10729 1.80148,-2.01328 2.1372,-2.01328 0.33573,0 0.94527,-0.24064 1.35454,-0.53477 0.40927,-0.29413 1.84705,-0.8413 3.19506,-1.21594 1.34802,-0.37465 3.31654,-1.19523 4.37452,-1.82352 2.75285,-1.63479 6.4702,-2.11035 16.49642,-2.11035 8.80843,0 8.82677,0.003 10.64137,1.23497 0.99976,0.67924 1.97311,1.69181 2.163,2.25015 0.1899,0.55835 0.70615,3.14689 1.14723,5.75232 0.44108,2.60543 1.0126,5.69641 1.27005,6.86886 0.25744,1.17244 0.78095,5.00953 1.16336,8.52687 1.32368,12.17512 1.48628,13.51416 1.99486,16.42805 0.28099,1.60994 1.84251,6.72607 3.47003,11.36914 2.99997,8.55849 7.18628,22.20291 8.4038,27.39056 0.3669,1.56325 0.88107,4.44107 1.14261,6.39514 0.26155,1.95408 0.80893,5.4714 1.21642,7.81629 2.16051,12.43277 3.4075,16.32083 6.93899,21.63542 1.0527,1.58423 1.914,3.06854 1.914,3.29847 0,0.22992 0.47625,1.30088 1.05833,2.37988 0.58209,1.079 1.05834,2.33887 1.05834,2.7997 0,0.46082 -0.58563,1.54799 -1.3014,2.41592 -0.71577,0.86794 -1.74734,2.21758 -2.29239,2.9992 -9.18134,13.16654 -8.40786,12.55344 -15.83733,12.55344 h -5.34345 l 0.23524,2.10648 c 0.34461,3.08578 -0.47838,4.05182 -3.45184,4.05182 -2.61085,0 -3.40289,-0.77854 -3.41147,-3.35332 -0.003,-0.89137 -0.13674,-1.89876 -0.29727,-2.23861 -0.4548,-0.96289 -10.45933,-1.48877 -28.57617,-1.50206 l -16.00246,-0.0121 0.23711,1.69717 c 0.30223,2.16329 -0.30761,3.45942 -2.40381,5.10902 -2.16997,1.70762 -5.3716,1.78165 -6.51273,0.15057 z m 67.08082,-9.63702 c 0.12768,-0.17144 0.099,-0.5445 -0.0638,-0.82902 -0.40345,-0.70534 -1.46188,-5.23755 -1.46188,-6.25974 0,-0.45501 -0.29602,-1.69398 -0.65783,-2.75329 -1.24425,-3.64289 -1.776,-6.19725 -2.02208,-9.71348 -1.24888,-9.11797 0.96178,-7.59642 -2.8098,-8.38235 l -36.51724,-1.87089 h -30.77099 c -0.15327,0.98429 1.48053,-3.17948 -1.69044,12.25926 -0.18961,7.82561 -0.22023,14.38444 -0.068,14.5752 0.1522,0.19075 2.18182,0.79497 4.51026,1.34269 3.96867,0.93357 5.56885,0.99926 25.57639,1.04988 11.73857,0.0297 23.4066,0.20678 25.92896,0.3935 6.10929,0.45226 19.75446,0.58038 20.04648,0.18824 z m 5.2229,-0.99414 c 1.20027,-1.06853 4.40125,-5.54308 5.56955,-7.78547 0.50109,-0.96179 1.58576,-2.5239 2.41039,-3.47135 0.82462,-0.94743 1.49931,-2.01501 1.49931,-2.37239 0,-0.75181 -2.06679,-4.71387 -3.92563,-7.5255 -1.77619,-2.68659 -3.96942,-8.74991 -4.89833,-13.54177 -1.23832,-6.38787 -2.0833,-11.36122 -2.49504,-14.68515 -0.97873,-7.90119 -4.83007,-21.15446 -11.76983,-40.5026 -0.46726,-1.30271 -1.09019,-3.75418 -1.3843,-5.44771 -0.53201,-3.06351 -0.6923,-4.37999 -2.0187,-16.58002 -0.3824,-3.51733 -0.90712,-7.35441 -1.16604,-8.52686 -0.25891,-1.17244 -0.849,-4.32613 -1.31131,-7.0082 -0.80719,-4.68288 -0.87377,-4.86531 -1.67738,-4.59517 -0.46026,0.15472 -1.62621,1.17669 -2.591,2.27106 l -1.75417,1.98974 0.19679,5.44771 c 0.24451,6.76876 1.54565,25.94113 1.97715,29.13346 0.17609,1.3027 0.33528,4.50027 0.35376,7.10571 0.0185,2.60543 0.26148,6.01617 0.54,7.57944 0.27853,1.56325 0.60233,5.29376 0.71956,8.29 0.19756,5.04934 0.58738,7.53203 2.08264,13.264 0.23788,0.9119 1.21229,3.22438 2.16536,5.13884 6.27089,12.59656 9.96757,23.83154 10.5399,32.03287 0.25284,3.62304 0.89078,6.44829 1.76826,7.83118 0.24799,0.39081 0.55985,1.77643 0.69303,3.07915 0.34296,3.35477 0.91941,5.49627 1.85595,6.89478 0.44574,0.6656 0.81044,1.57159 0.81044,2.01329 0,1.02662 0.63527,1.01643 1.80964,-0.029 z m -32.39764,-32.68194 20.09495,1.69191 -10.51011,-25.69242 c 0.67021,0.30686 4.85864,5.45904 -0.23291,3.842 l -6.93069,-0.45526 c -4.06423,-0.25834 -15.77552,-0.10453 -16.31597,-0.76129 -0.84405,-1.02572 -0.84999,-1.72984 -0.023,-2.73476 0.5671,-0.68916 11.82383,-1.12748 15.875,-0.85215 l 6.37912,0.58274 -1.73825,-27.18395 c -7.9e-4,-2.58042 -0.22596,-6.61022 -0.50039,-8.9551 -0.27442,-2.34489 -0.59809,-6.0754 -0.71928,-8.29002 -0.12119,-2.21461 -0.45157,-7.5439 -0.7342,-11.84286 -0.28262,-4.29896 -0.55362,-8.77557 -0.60221,-9.948 l -0.0884,-2.13172 -5.64444,-0.38146 c -5.87017,-0.39671 -20.44675,-0.12086 -22.13681,0.41891 -0.8139,0.25996 -0.97014,0.55973 -0.97014,1.86144 0,2.42951 -1.34819,10.85232 -2.53478,15.83601 -1.12679,4.73251 -2.83353,9.52927 -5.22404,14.68199 -0.77737,1.67562 -1.4134,3.57693 -1.4134,4.22514 0,0.64819 -0.49603,2.35875 -1.1023,3.80126 -0.60626,1.4425 -1.4017,3.79131 -1.76764,5.21955 -0.36594,1.42826 -1.35991,4.32178 -2.20882,6.43006 -1.46202,3.63096 -5.84695,33.4319 -5.43998,33.9784 0.10382,0.1394 3.19631,-0.54314 3.76891,-1.19012 0.57259,-0.64697 2.7621,-1.98116 4.86559,-2.96489 5.2914,-2.47458 7.30886,-3.72718 9.03933,-5.61233 1.69898,-1.85085 12.75041,-8.26285 13.20281,-7.88739 0.77031,0.63928 0.0679,4.93419 -0.80692,4.93419 -0.20974,0 -9.67057,5.55288 -10.8607,6.79611 -2.57626,2.69117 -5.5924,4.47331 -11.67045,6.8957 -1.15137,0.45887 -7.58727,4.22074 -7.58727,5.03999 0,0.11373 7.21164,0.53425 12.59591,0.60779 5.38427,0.0736 12.56771,0.18311 15.9632,0.24344 3.39549,0.0603 10.5859,-0.031 15.97868,-0.20291 z m 5.55036,-97.95125 c 1.46983,-1.45615 1.9574,-2.51267 1.46482,-3.17412 -0.23766,-0.31913 -3.31937,-0.41039 -8.9442,-0.26487 -8.273,0.21405 -8.67675,0.26879 -11.22744,1.5223 -1.45521,0.71514 -3.16177,1.5044 -3.79236,1.75393 -2.75706,1.09092 -0.78451,1.35656 10.07382,1.35656 h 11.22035 z"
         id="path866-6-3"
         inkscape:connector-curvature="0" />
      <g
         transform="matrix(1,0,0,1.2990305,0,-56.169208)"
         id="g840">
        <path
           style="opacity:0.98999999;fill:#bdbdbd;fill-opacity:1;fill-rule:nonzero;stroke:none;stroke-width:11.82854748;stroke-linecap:round;stroke-linejoin:round;stroke-miterlimit:10;stroke-dasharray:none;stroke-dashoffset:0;stroke-opacity:1;paint-order:normal"
           d="m -190.12145,262.26362 c -1.79575,-0.19192 -2.13031,-0.71062 -2.20266,-3.4149 -0.0496,-1.85236 0.88603,-10.14859 1.35528,-12.0178 0.14368,-0.57233 0.33372,-8.96142 0.42893,-18.93469 0.20515,-21.48955 0.54433,-33.89162 0.95899,-35.06545 0.48633,-1.3767 1.2974,-1.97605 8.51379,-1.80432 6.81697,0.16222 7.68811,0.74083 7.90877,1.43609 0.69331,2.18442 0.9889,35.3912 0.37774,42.43495 -0.23797,2.74261 -0.20199,5.66279 0.18114,14.70427 0.34928,8.24252 0.39989,11.45364 0.18785,11.91902 -0.25757,0.56531 -0.52312,0.56219 -2.35963,0.71743 -2.43555,0.20588 -13.23205,0.25178 -15.3502,0.0254 z"
           id="path4597"
           inkscape:connector-curvature="0"
           sodipodi:nodetypes="cccscsccscccc" />
        <path
           style="opacity:0.98999999;fill:#4d4d4d;fill-opacity:1;fill-rule:nonzero;stroke:none;stroke-width:16.72809219;stroke-linecap:round;stroke-linejoin:round;stroke-miterlimit:10;stroke-dasharray:none;stroke-dashoffset:0;stroke-opacity:1;paint-order:normal"
           d="m -189.11363,258.29437 c 0.2688,-2.00411 0.6417,-3.37312 0.97652,-3.58499 0.29791,-0.18852 1.4458,-0.34536 2.55087,-0.34855 2.4872,-0.007 3.47143,-0.49711 3.47143,-1.72808 0,-1.13311 -0.84465,-1.5416 -3.87425,-1.87365 l -2.17336,-0.23821 v -3.48798 c 0,-2.20891 0.16633,-3.65431 0.45357,-3.94155 0.2676,-0.2676 1.5539,-0.45358 3.1372,-0.45358 2.86957,0 3.59077,-0.35413 3.59077,-1.76319 0,-1.05767 -0.75287,-1.46471 -3.31189,-1.79056 -1.09394,-0.1393 -2.22231,-0.34281 -2.5075,-0.45224 -0.66665,-0.25582 -1.09407,-7.4044 -0.69733,-11.66299 l 0.28012,-3.00678 1.66021,-0.40318 c 0.95271,-0.23136 1.89071,-0.75031 2.20107,-1.21774 0.48492,-0.73033 0.45981,-0.89562 -0.2428,-1.59823 -0.43102,-0.43101 -1.25141,-0.78626 -1.8231,-0.78945 -1.83723,-0.0102 -2.03103,-0.37948 -2.04081,-3.88851 -0.005,-1.78939 0.10075,-3.43114 0.23498,-3.64832 0.13423,-0.21718 0.82932,-0.39488 1.54466,-0.39488 1.48535,0 2.92178,-1.16533 2.56915,-2.08427 -0.24761,-0.64527 -2.04665,-1.69549 -2.90438,-1.69549 -1.35954,0 -1.48849,-0.911 -1.20378,-8.50423 l 0.27637,-7.37077 h 5.81734 5.81734 v 2.59039 c 0,1.42471 -0.10778,3.62156 -0.23951,4.88189 l -0.23951,2.2915 -2.12284,0.50427 c -1.74643,0.41486 -2.14475,0.65876 -2.24636,1.37552 -0.1678,1.1837 0.56541,1.96357 1.84608,1.96357 0.58468,0 1.50652,0.16861 2.04855,0.37469 0.95971,0.36488 0.98261,0.45144 0.87505,3.30729 l -0.11045,2.93261 -1.27324,0.12178 c -0.70029,0.067 -1.7635,-0.0813 -2.3627,-0.32948 -0.85385,-0.35368 -1.21198,-0.34957 -1.65607,0.019 -0.59795,0.49625 -0.75125,2.14799 -0.26966,2.90538 0.40101,0.63066 2.17739,1.25101 3.6019,1.25786 2.05971,0.01 2.18961,0.27252 2.06928,4.18354 l -0.10951,3.55918 -1.51191,0.31519 c -3.6268,0.75607 -3.77682,0.82341 -3.91015,1.75512 -0.17461,1.22018 0.83342,1.89844 2.82147,1.89844 2.24898,0 2.94059,0.7818 2.63889,2.98298 -0.129,0.94115 -0.37877,1.85541 -0.55505,2.03169 -0.17628,0.17628 -1.32275,0.41881 -2.54771,0.53896 -2.43697,0.23902 -3.17215,0.61631 -3.17215,1.62792 0,1.00739 0.85678,1.5147 2.9835,1.76658 2.92397,0.3463 3.14811,0.63514 3.14811,4.05679 0,1.6155 -0.17419,3.11147 -0.3871,3.32438 -0.2129,0.21291 -1.16023,0.47425 -2.10517,0.58076 -0.99912,0.11261 -1.9864,0.49016 -2.35931,0.90221 -0.60384,0.66724 -0.60103,0.75299 0.0481,1.47025 0.37913,0.41893 1.33742,0.86532 2.12955,0.99198 2.37767,0.38021 2.6776,0.79881 2.66078,3.71366 -0.0164,2.84994 -0.13988,3.01968 -2.46653,3.39172 -1.779,0.28448 -2.51797,0.79052 -2.51797,1.72429 0,0.93868 0.83565,1.51744 2.51761,1.74367 2.9447,0.39607 3.15203,0.49318 3.15203,1.47633 v 0.93774 h -7.30761 -7.30761 z"
           id="path939-7"
           inkscape:connector-curvature="0" />
      </g>
    </g>
  </g>
</svg>
